<svg width="87" height="151" viewBox="0 0 87 151" fill="none" xmlns="http://www.w3.org/2000/svg">
<path fill-rule="evenodd" clip-rule="evenodd" d="M61.6995 70.1536C61.556 70.1536 61.4104 70.121 61.2734 70.0521C60.8046 69.8165 60.6158 69.2454 60.8514 68.7765C61.2901 67.9036 61.9157 66.2028 61.1741 64.6183C60.5136 63.207 58.9059 62.1942 56.3957 61.6077C55.6125 61.4247 54.8607 60.9093 54.065 60.3637C52.51 59.2974 50.9016 58.1952 48.7387 59.0057C48.2446 59.1907 47.7282 59.369 47.2287 59.5413C46.9837 59.6259 46.7371 59.7109 46.4896 59.798C45.9952 59.972 45.4524 59.7119 45.2782 59.2169C45.1041 58.7218 45.3641 58.1794 45.8593 58.0054C46.1103 57.9172 46.3604 57.8307 46.6088 57.7451C47.1193 57.5689 47.6012 57.4026 48.072 57.2262C51.1609 56.0687 53.4607 57.6453 55.1395 58.7964C55.784 59.2382 56.3926 59.6556 56.828 59.7573C59.934 60.4829 61.9753 61.8474 62.8951 63.8127C63.9767 66.1239 63.1427 68.4495 62.5491 69.6301C62.3822 69.962 62.0473 70.1536 61.6995 70.1536Z" fill="url(#paint0_linear_991_10622)"/>
<path fill-rule="evenodd" clip-rule="evenodd" d="M30.6749 109.746C27.3118 109.746 23.6494 108.391 20.6024 105.722C14.8696 100.702 13.4549 92.9068 17.449 88.3457C18.5882 87.0449 19.9662 86.162 21.6619 85.6468C22.1641 85.4942 22.6947 85.7776 22.8472 86.2797C22.9998 86.7819 22.7164 87.3124 22.2143 87.465C20.8682 87.8739 19.777 88.5716 18.8785 89.5976C15.5747 93.3704 16.9096 99.9625 21.8544 104.293C26.799 108.623 33.5097 109.076 36.8135 105.304C37.3197 104.725 37.7274 104.068 38.0252 103.349C38.2261 102.864 38.7817 102.634 39.2667 102.835C39.7514 103.036 39.9815 103.592 39.7807 104.077C39.4034 104.987 38.8861 105.821 38.2432 106.555C36.3719 108.692 33.6395 109.746 30.6749 109.746Z" fill="url(#paint1_linear_991_10622)"/>
<path fill-rule="evenodd" clip-rule="evenodd" d="M40.5198 104.526C39.5962 104.526 38.6595 104.449 37.7245 104.292C34.536 103.757 31.7412 102.344 29.855 100.312C29.4979 99.9279 29.5202 99.3266 29.9047 98.9696C30.2891 98.6127 30.8903 98.6349 31.2474 99.0194C34.5198 102.543 41.0137 103.69 45.7233 101.576C46.202 101.36 46.7643 101.575 46.9792 102.053C47.1942 102.532 46.9803 103.094 46.5015 103.309C44.7105 104.113 42.6512 104.526 40.5198 104.526Z" fill="url(#paint2_linear_991_10622)"/>
<path fill-rule="evenodd" clip-rule="evenodd" d="M62.9736 75.6426C62.8752 75.6426 62.7751 75.6273 62.6766 75.5947C62.1782 75.4308 61.907 74.8938 62.071 74.3954C62.4836 73.141 62.07 71.6155 60.9361 70.2102C59.7131 68.6938 57.8927 67.554 56.2988 67.306C55.7805 67.2254 55.4255 66.7396 55.506 66.2211C55.5868 65.7026 56.0725 65.3481 56.591 65.4283C59.0606 65.8126 61.2189 67.534 62.4152 69.0171C63.9614 70.9339 64.4939 73.1106 63.8759 74.9892C63.7445 75.389 63.3728 75.6426 62.9736 75.6426Z" fill="url(#paint3_linear_991_10622)"/>
<path fill-rule="evenodd" clip-rule="evenodd" d="M28.6131 92.7506C26.5853 92.7506 24.3255 91.9235 22.6924 89.8224C20.0294 86.3961 19.8352 82.2684 22.173 78.7807C22.4651 78.3447 23.0554 78.2281 23.4912 78.5205C23.9272 78.8127 24.0436 79.4029 23.7514 79.8387C21.8922 82.6123 22.0571 85.9086 24.1928 88.6562C25.8658 90.8086 28.5724 91.2337 30.3815 90.5418C31.0779 90.2752 32.6816 89.4225 32.5297 87.2678C32.4929 86.7445 32.8873 86.2903 33.4108 86.2534C33.9322 86.2155 34.3885 86.611 34.4253 87.1344C34.5925 89.5089 33.3347 91.4461 31.0607 92.3164C30.3363 92.5936 29.4967 92.7506 28.6131 92.7506Z" fill="url(#paint4_linear_991_10622)"/>
<path fill-rule="evenodd" clip-rule="evenodd" d="M31.3641 88.3112C29.7142 88.3112 27.8938 87.7399 26.1938 86.3233C23.7428 84.2809 22.2658 81.3448 22.243 78.4694C22.223 75.9767 23.2917 73.7304 25.3334 71.9731C25.7312 71.6309 26.3309 71.6758 26.6733 72.0735C27.0156 72.4712 26.9707 73.0711 26.573 73.4134C24.9681 74.7947 24.1278 76.5378 24.143 78.4543C24.1614 80.7435 25.4132 83.1994 27.4103 84.8637C29.073 86.2494 31.8303 87.0924 33.9545 85.6693C35.2688 84.7888 35.7313 83.3576 35.2238 81.7426C35.0664 81.242 35.3448 80.7088 35.8454 80.5514C36.3458 80.3941 36.8792 80.6724 37.0367 81.1729C37.7921 83.5774 37.0166 85.905 35.0121 87.2479C34.0366 87.9013 32.7616 88.3112 31.3641 88.3112Z" fill="url(#paint5_linear_991_10622)"/>
<path fill-rule="evenodd" clip-rule="evenodd" d="M33.3828 82.7192C32.4443 82.7192 31.5386 82.5326 30.7556 82.141C26.8546 80.1906 25.3333 76.4728 25.2103 73.6437C25.1285 71.7617 26.205 67.9739 29.4424 65.822C29.8793 65.5315 30.4691 65.6504 30.7595 66.0874C31.05 66.5244 30.9312 67.1141 30.4943 67.4045C28.0721 69.0145 27.042 72.03 27.1087 73.5612C27.143 74.3519 27.5214 78.3995 31.6052 80.4414C33.2459 81.2619 35.9102 80.6891 37.4233 79.1911C38.3654 78.2582 39.2282 76.6126 37.9886 74.0704C37.7585 73.5988 37.9545 73.0301 38.4261 72.8C38.8977 72.5699 39.4664 72.7658 39.6965 73.2376C41.0293 75.9705 40.688 78.6327 38.7602 80.5415C37.3457 81.942 35.2968 82.7192 33.3828 82.7192Z" fill="url(#paint6_linear_991_10622)"/>
<path fill-rule="evenodd" clip-rule="evenodd" d="M37.8824 74.3804C35.6203 74.3804 33.4214 73.626 31.6418 72.1802C30.0488 70.8858 28.716 67.8818 29.3838 64.864C30.2412 60.9901 33.8647 59.5313 35.9483 59.0066C36.811 58.7893 37.5898 58.5219 38.3427 58.2633C40.6957 57.4555 42.9181 56.6924 46.0378 58.244C47.2408 58.8423 48.5306 59.1506 49.7781 59.4485C52.7989 60.1702 55.9228 60.9166 56.6539 65.7618C56.7321 66.2807 56.375 66.7647 55.8561 66.8431C55.3384 66.921 54.8532 66.5643 54.7749 66.0454C54.235 62.467 52.2863 62.0014 49.3366 61.2967C48.0484 60.989 46.5886 60.6403 45.1917 59.9454C42.7832 58.7476 41.1794 59.2984 38.9597 60.0605C38.1696 60.3318 37.3526 60.6124 36.4123 60.8492C33.5069 61.581 31.718 63.1113 31.2393 65.2746C30.7607 67.4367 31.6977 69.7771 32.8402 70.7054C34.9653 72.4321 37.8417 72.9354 40.535 72.0517C43.3892 71.115 45.4982 68.7627 46.3211 65.5977C46.453 65.09 46.9718 64.7857 47.4797 64.9173C47.9875 65.0493 48.292 65.568 48.1601 66.0759C47.1715 69.8788 44.6081 72.715 41.1273 73.8571C40.0575 74.2081 38.9625 74.3804 37.8824 74.3804Z" fill="url(#paint7_linear_991_10622)"/>
<path fill-rule="evenodd" clip-rule="evenodd" d="M65.3739 84.767C65.2827 84.767 65.19 84.7537 65.0982 84.7259C64.596 84.574 64.3121 84.0436 64.4642 83.5414C65.3258 80.6955 64.8148 78.0549 63.0624 76.2964C60.6694 73.8951 56.3848 73.3884 51.308 74.9064C50.8048 75.0568 50.276 74.7711 50.1255 74.2682C49.9752 73.7656 50.2609 73.2361 50.7637 73.0859C56.5322 71.3611 61.5057 72.0424 64.4084 74.9551C66.6705 77.2249 67.3536 80.5552 66.2827 84.0919C66.1585 84.5023 65.7816 84.767 65.3739 84.767Z" fill="url(#paint8_linear_991_10622)"/>
<path fill-rule="evenodd" clip-rule="evenodd" d="M66.9149 92.2574C66.8507 92.2574 66.7858 92.2509 66.7204 92.2374C66.2066 92.1305 65.8769 91.6273 65.9838 91.1136C66.6197 88.0563 65.9027 85.4193 64.0165 83.8792C61.5409 81.8575 57.4533 81.8458 52.8019 83.847C52.3204 84.0541 51.7612 83.8318 51.5537 83.3498C51.3463 82.8677 51.5689 82.3089 52.0509 82.1015C57.3759 79.8107 62.1751 79.922 65.2185 82.4073C67.6724 84.4113 68.6294 87.7255 67.8442 91.5007C67.7508 91.9491 67.3556 92.2574 66.9149 92.2574Z" fill="url(#paint9_linear_991_10622)"/>
<path fill-rule="evenodd" clip-rule="evenodd" d="M61.8758 91.0116C59.4769 91.0116 56.7903 91.7269 54.2542 93.1912C51.4453 94.8128 49.2562 97.0961 48.0903 99.6206C46.976 102.033 46.9427 104.367 47.9969 106.193C50.2388 110.076 56.6932 110.561 62.3856 107.275C68.0776 103.989 70.8846 98.1562 68.6427 94.2731C67.3999 92.1203 64.8609 91.0116 61.8758 91.0116ZM54.7941 111.346C54.3795 111.346 53.9689 111.328 53.5632 111.291C50.2842 110.992 47.723 109.519 46.3512 107.143C44.9796 104.767 44.9847 101.813 46.3653 98.8237C47.6944 95.9462 50.1585 93.3615 53.3041 91.5455C56.4495 89.7295 59.9201 88.8875 63.0766 89.1755C66.3556 89.4744 68.9168 90.9472 70.2885 93.323C71.6601 95.6988 71.6551 98.6533 70.2745 101.643C68.9454 104.52 66.4812 107.105 63.3357 108.921C60.5945 110.503 57.606 111.346 54.7941 111.346Z" fill="url(#paint10_linear_991_10622)"/>
<path fill-rule="evenodd" clip-rule="evenodd" d="M53.2891 106.435C52.9606 106.435 52.6414 106.265 52.4654 105.96C51.8155 104.834 52.0006 103.377 52.9867 101.855C53.849 100.525 55.258 99.253 56.9541 98.2737C60.7708 96.0703 64.5971 96.0513 65.8551 98.2296C66.1174 98.684 65.9616 99.2651 65.5073 99.5274C65.0528 99.7895 64.4719 99.6343 64.2094 99.1797C63.6849 98.2714 61.0323 98.1133 57.9042 99.9194C56.4842 100.739 55.2731 101.822 54.5812 102.889C54.0199 103.755 53.8441 104.548 54.1111 105.01C54.3733 105.465 54.2176 106.046 53.7632 106.308C53.6136 106.394 53.4502 106.435 53.2891 106.435Z" fill="url(#paint11_linear_991_10622)"/>
<path fill-rule="evenodd" clip-rule="evenodd" d="M45.877 70.1206C45.6267 70.1206 45.3768 70.0224 45.1902 69.8272C44.8276 69.4481 44.8409 68.8467 45.22 68.4839C47.0555 66.7284 49.872 65.5183 52.7542 65.247C55.9471 64.946 58.8784 65.7757 61.0075 67.5821C61.4075 67.9216 61.4567 68.5212 61.1172 68.9213C60.7776 69.3212 60.1782 69.3706 59.778 69.031C58.0427 67.5586 55.6108 66.8868 52.9323 67.1388C50.4619 67.3714 48.0699 68.3875 46.5336 69.8572C46.3494 70.0331 46.113 70.1206 45.877 70.1206Z" fill="url(#paint12_linear_991_10622)"/>
<path fill-rule="evenodd" clip-rule="evenodd" d="M17.999 64.3184L22.589 66.7046L17.999 64.3184Z" fill="#E6E6E6"/>
<path fill-rule="evenodd" clip-rule="evenodd" d="M22.5879 67.655C22.4402 67.655 22.2905 67.6206 22.1503 67.5477L17.5603 65.1614C17.0948 64.9193 16.9136 64.3457 17.1557 63.8801C17.3977 63.4146 17.9713 63.2335 18.4369 63.4754L23.0268 65.8618C23.4925 66.1038 23.6737 66.6774 23.4317 67.1431C23.2625 67.4684 22.931 67.655 22.5879 67.655Z" fill="url(#paint13_linear_991_10622)"/>
<path fill-rule="evenodd" clip-rule="evenodd" d="M27.771 51.251L30.839 55.1145L27.771 51.251Z" fill="#E6E6E6"/>
<path fill-rule="evenodd" clip-rule="evenodd" d="M30.8401 56.0647C30.5602 56.0647 30.283 55.9416 30.0954 55.7054L27.0273 51.8419C26.7011 51.4309 26.7697 50.8333 27.1805 50.507C27.5914 50.1805 28.189 50.2491 28.5154 50.6602L31.5836 54.5236C31.9099 54.9346 31.8413 55.5322 31.4303 55.8585C31.2557 55.9972 31.047 56.0647 30.8401 56.0647Z" fill="url(#paint14_linear_991_10622)"/>
<path fill-rule="evenodd" clip-rule="evenodd" d="M44.338 45.6826L44.3008 50.7442L44.338 45.6826Z" fill="#E6E6E6"/>
<path fill-rule="evenodd" clip-rule="evenodd" d="M44.2999 51.6943H44.2927C43.768 51.6903 43.3458 51.2618 43.3496 50.7371L43.3868 45.6756C43.3908 45.1532 43.8155 44.7324 44.3368 44.7324H44.3439C44.8686 44.7364 45.2908 45.1649 45.2869 45.6896L45.2497 50.7511C45.2459 51.2735 44.8214 51.6943 44.2999 51.6943Z" fill="url(#paint15_linear_991_10622)"/>
<path fill-rule="evenodd" clip-rule="evenodd" d="M72.2911 64.6602L67.7012 67.0466L72.2911 64.6602Z" fill="#E6E6E6"/>
<path fill-rule="evenodd" clip-rule="evenodd" d="M67.7026 67.9969C67.3595 67.9969 67.028 67.8104 66.8588 67.4849C66.6167 67.0192 66.7979 66.4456 67.2636 66.2036L71.8536 63.8172C72.3189 63.5753 72.8926 63.7563 73.1347 64.222C73.3769 64.6875 73.1957 65.2611 72.73 65.5032L68.14 67.8895C68 67.9624 67.8503 67.9969 67.7026 67.9969Z" fill="url(#paint16_linear_991_10622)"/>
<path fill-rule="evenodd" clip-rule="evenodd" d="M62.86 51.8193L59.6782 55.5693L62.86 51.8193Z" fill="#E6E6E6"/>
<path fill-rule="evenodd" clip-rule="evenodd" d="M59.6776 56.5193C59.4603 56.5193 59.2421 56.4452 59.0636 56.2936C58.6633 55.9542 58.6142 55.3546 58.9537 54.9545L62.1353 51.2046C62.4748 50.8046 63.0744 50.7552 63.4745 51.0949C63.8747 51.4344 63.9238 52.0339 63.5843 52.434L60.4027 56.1839C60.2147 56.4055 59.9471 56.5193 59.6776 56.5193Z" fill="url(#paint17_linear_991_10622)"/>
<path fill-rule="evenodd" clip-rule="evenodd" d="M26.957 117.912L30.0251 114.049L26.957 117.912Z" fill="#E6E6E6"/>
<path fill-rule="evenodd" clip-rule="evenodd" d="M26.9568 118.863C26.7499 118.863 26.5412 118.795 26.3666 118.656C25.9557 118.33 25.8872 117.732 26.2133 117.321L29.2815 113.458C29.6078 113.047 30.2055 112.978 30.6164 113.305C31.0274 113.631 31.0959 114.229 30.7696 114.64L27.7015 118.503C27.5139 118.74 27.2367 118.863 26.9568 118.863Z" fill="url(#paint18_linear_991_10622)"/>
<path fill-rule="evenodd" clip-rule="evenodd" d="M43.523 123.481L43.4858 118.419L43.523 123.481Z" fill="#E6E6E6"/>
<path fill-rule="evenodd" clip-rule="evenodd" d="M43.5233 124.432C43.0017 124.432 42.5772 124.011 42.5734 123.489L42.5362 118.427C42.5322 117.902 42.9545 117.474 43.4792 117.47H43.4864C44.0077 117.47 44.4324 117.89 44.4364 118.413L44.4736 123.474C44.4774 123.999 44.0551 124.428 43.5304 124.432H43.5233Z" fill="url(#paint19_linear_991_10622)"/>
<path fill-rule="evenodd" clip-rule="evenodd" d="M60.4767 117.912L57.4087 114.049L60.4767 117.912Z" fill="#E6E6E6"/>
<path fill-rule="evenodd" clip-rule="evenodd" d="M60.4774 118.863C60.1974 118.863 59.9203 118.74 59.7328 118.504L56.6646 114.641C56.3383 114.23 56.4068 113.632 56.8177 113.306C57.2288 112.979 57.8266 113.048 58.1526 113.459L61.2208 117.322C61.5471 117.733 61.4785 118.331 61.0677 118.657C60.893 118.796 60.6842 118.863 60.4774 118.863Z" fill="url(#paint20_linear_991_10622)"/>
<defs>
<linearGradient id="paint0_linear_991_10622" x1="45.2241" y1="52.1341" x2="63.9447" y2="55.2686" gradientUnits="userSpaceOnUse">
<stop offset="0.320408" stop-color="#D9499B"/>
<stop offset="1" stop-color="#0DFF80"/>
</linearGradient>
<linearGradient id="paint1_linear_991_10622" x1="15.1787" y1="77.1185" x2="40.8734" y2="80.3407" gradientUnits="userSpaceOnUse">
<stop offset="0.320408" stop-color="#D9499B"/>
<stop offset="1" stop-color="#0DFF80"/>
</linearGradient>
<linearGradient id="paint2_linear_991_10622" x1="29.6011" y1="96.6731" x2="45.8604" y2="102.668" gradientUnits="userSpaceOnUse">
<stop offset="0.320408" stop-color="#D9499B"/>
<stop offset="1" stop-color="#0DFF80"/>
</linearGradient>
<linearGradient id="paint3_linear_991_10622" x1="55.4946" y1="61.822" x2="64.529" y2="62.7578" gradientUnits="userSpaceOnUse">
<stop offset="0.320408" stop-color="#D9499B"/>
<stop offset="1" stop-color="#0DFF80"/>
</linearGradient>
<linearGradient id="paint4_linear_991_10622" x1="20.5479" y1="73.2999" x2="35.0387" y2="75.0161" gradientUnits="userSpaceOnUse">
<stop offset="0.320408" stop-color="#D9499B"/>
<stop offset="1" stop-color="#0DFF80"/>
</linearGradient>
<linearGradient id="paint5_linear_991_10622" x1="22.2427" y1="65.9185" x2="37.9949" y2="67.6773" gradientUnits="userSpaceOnUse">
<stop offset="0.320408" stop-color="#D9499B"/>
<stop offset="1" stop-color="#0DFF80"/>
</linearGradient>
<linearGradient id="paint6_linear_991_10622" x1="25.2061" y1="59.6668" x2="41.1872" y2="61.4247" gradientUnits="userSpaceOnUse">
<stop offset="0.320408" stop-color="#D9499B"/>
<stop offset="1" stop-color="#0DFF80"/>
</linearGradient>
<linearGradient id="paint7_linear_991_10622" x1="29.2075" y1="51.3569" x2="57.1565" y2="56.8839" gradientUnits="userSpaceOnUse">
<stop offset="0.320408" stop-color="#D9499B"/>
<stop offset="1" stop-color="#0DFF80"/>
</linearGradient>
<linearGradient id="paint8_linear_991_10622" x1="50.0854" y1="67.7149" x2="67.2884" y2="70.5073" gradientUnits="userSpaceOnUse">
<stop offset="0.320408" stop-color="#D9499B"/>
<stop offset="1" stop-color="#0DFF80"/>
</linearGradient>
<linearGradient id="paint9_linear_991_10622" x1="51.4761" y1="76.3124" x2="68.5613" y2="79.2684" gradientUnits="userSpaceOnUse">
<stop offset="0.320408" stop-color="#D9499B"/>
<stop offset="1" stop-color="#0DFF80"/>
</linearGradient>
<linearGradient id="paint10_linear_991_10622" x1="45.3262" y1="81.3063" x2="72.2594" y2="85.1699" gradientUnits="userSpaceOnUse">
<stop offset="0.320408" stop-color="#D9499B"/>
<stop offset="1" stop-color="#0DFF80"/>
</linearGradient>
<linearGradient id="paint11_linear_991_10622" x1="52.084" y1="93.1536" x2="66.355" y2="95.6299" gradientUnits="userSpaceOnUse">
<stop offset="0.320408" stop-color="#D9499B"/>
<stop offset="1" stop-color="#0DFF80"/>
</linearGradient>
<linearGradient id="paint12_linear_991_10622" x1="44.9268" y1="63.4519" x2="59.8105" y2="69.5272" gradientUnits="userSpaceOnUse">
<stop offset="0.320408" stop-color="#D9499B"/>
<stop offset="1" stop-color="#0DFF80"/>
</linearGradient>
<linearGradient id="paint13_linear_991_10622" x1="17.0483" y1="61.8611" x2="23.6846" y2="63.0938" gradientUnits="userSpaceOnUse">
<stop offset="0.320408" stop-color="#D9499B"/>
<stop offset="1" stop-color="#0DFF80"/>
</linearGradient>
<linearGradient id="paint14_linear_991_10622" x1="26.8213" y1="48.2744" x2="32.0183" y2="48.824" gradientUnits="userSpaceOnUse">
<stop offset="0.320408" stop-color="#D9499B"/>
<stop offset="1" stop-color="#0DFF80"/>
</linearGradient>
<linearGradient id="paint15_linear_991_10622" x1="43.3496" y1="42.2849" x2="45.3964" y2="42.3548" gradientUnits="userSpaceOnUse">
<stop offset="0.320408" stop-color="#D9499B"/>
<stop offset="1" stop-color="#0DFF80"/>
</linearGradient>
<linearGradient id="paint16_linear_991_10622" x1="66.7515" y1="62.2028" x2="73.3878" y2="63.4356" gradientUnits="userSpaceOnUse">
<stop offset="0.320408" stop-color="#D9499B"/>
<stop offset="1" stop-color="#0DFF80"/>
</linearGradient>
<linearGradient id="paint17_linear_991_10622" x1="58.728" y1="48.8827" x2="64.0386" y2="49.4688" gradientUnits="userSpaceOnUse">
<stop offset="0.320408" stop-color="#D9499B"/>
<stop offset="1" stop-color="#0DFF80"/>
</linearGradient>
<linearGradient id="paint18_linear_991_10622" x1="26.0073" y1="111.072" x2="31.2044" y2="111.622" gradientUnits="userSpaceOnUse">
<stop offset="0.320408" stop-color="#D9499B"/>
<stop offset="1" stop-color="#0DFF80"/>
</linearGradient>
<linearGradient id="paint19_linear_991_10622" x1="42.5361" y1="115.022" x2="44.583" y2="115.092" gradientUnits="userSpaceOnUse">
<stop offset="0.320408" stop-color="#D9499B"/>
<stop offset="1" stop-color="#0DFF80"/>
</linearGradient>
<linearGradient id="paint20_linear_991_10622" x1="56.4585" y1="111.073" x2="61.6555" y2="111.623" gradientUnits="userSpaceOnUse">
<stop offset="0.320408" stop-color="#D9499B"/>
<stop offset="1" stop-color="#0DFF80"/>
</linearGradient>
</defs>
</svg>
