<svg width="15" height="27" viewBox="0 0 15 27" fill="none" xmlns="http://www.w3.org/2000/svg">
<path d="M13.0238 6.00877V19.5942C13.0238 22.205 10.6656 24.3196 7.75409 24.3196C4.8426 24.3196 2.48442 22.205 2.48442 19.5942V4.82742C2.48442 3.19717 3.95993 1.87407 5.77797 1.87407C7.596 1.87407 9.07151 3.19717 9.07151 4.82742V17.2315C9.07151 17.8813 8.47867 18.4129 7.75409 18.4129C7.02951 18.4129 6.43667 17.8813 6.43667 17.2315V6.00877H4.46055V17.2315C4.46055 18.8618 5.93606 20.1849 7.75409 20.1849C9.57212 20.1849 11.0476 18.8618 11.0476 17.2315V4.82742C11.0476 2.21665 8.68946 0.102051 5.77797 0.102051C2.86648 0.102051 0.508301 2.21665 0.508301 4.82742V19.5942C0.508301 23.1855 3.74914 26.0916 7.75409 26.0916C11.759 26.0916 14.9999 23.1855 14.9999 19.5942V6.00877H13.0238Z" fill="#DADADA" fill-opacity="0.53"/>
</svg>
