<svg width="25" height="22" viewBox="0 0 25 22" fill="none" xmlns="http://www.w3.org/2000/svg">
<path fill-rule="evenodd" clip-rule="evenodd" d="M23.2204 9.46791H5.34126L10.8158 2.89791C11.3492 2.25899 11.2618 1.30815 10.6229 0.776217C9.98245 0.242781 9.03312 0.33018 8.50119 0.969098L0.966784 10.0104C0.908015 10.0812 0.877878 10.1641 0.834178 10.2424C0.798013 10.3057 0.754314 10.36 0.72719 10.4293C0.65938 10.6026 0.618694 10.7849 0.618694 10.9688C0.618694 10.9703 0.617187 10.9733 0.617187 10.9748C0.617187 10.9763 0.618694 10.9793 0.618694 10.9808C0.618694 11.1647 0.65938 11.347 0.72719 11.5203C0.754314 11.5896 0.798013 11.6438 0.834178 11.7071C0.877878 11.7855 0.908015 11.8684 0.966784 11.9392L8.50119 20.9805C8.79955 21.3376 9.2275 21.523 9.65847 21.523C9.99903 21.523 10.3411 21.4084 10.6229 21.1734C11.2618 20.6414 11.3492 19.6906 10.8158 19.0517L5.34126 12.4817H23.2204C24.0522 12.4817 24.7273 11.8066 24.7273 10.9748C24.7273 10.143 24.0522 9.46791 23.2204 9.46791Z" fill="#F3F3F3"/>
</svg>
