<svg width="36" height="37" viewBox="0 0 36 37" fill="none" xmlns="http://www.w3.org/2000/svg">
<path d="M20.471 28.7735C20.2498 28.7742 20.0313 28.7254 19.8315 28.6306C19.6317 28.5358 19.4557 28.3975 19.3164 28.2258L12.167 19.3446C11.9493 19.0797 11.8303 18.7475 11.8303 18.4047C11.8303 18.0618 11.9493 17.7296 12.167 17.4647L19.568 8.58355C19.8193 8.28127 20.1803 8.09118 20.5717 8.05509C20.9631 8.019 21.3528 8.13988 21.6551 8.39113C21.9574 8.64237 22.1475 9.00341 22.1836 9.39481C22.2197 9.78622 22.0988 10.1759 21.8475 10.4782L15.2311 18.4121L21.6255 26.3459C21.8065 26.5632 21.9215 26.8278 21.9568 27.1083C21.9922 27.3889 21.9464 27.6737 21.825 27.9291C21.7035 28.1845 21.5114 28.3997 21.2715 28.5494C21.0315 28.699 20.7537 28.7768 20.471 28.7735Z" fill="#EFF6FF"/>
</svg>
