<svg width="24" height="24" viewBox="0 0 24 24" fill="none" xmlns="http://www.w3.org/2000/svg">
<path d="M19.9 23.4996C19.743 23.4996 19.588 23.4496 19.458 23.3556L12 17.9276L4.54198 23.3576C4.31398 23.5216 4.01198 23.5476 3.75998 23.4176C3.50998 23.2906 3.34998 23.0326 3.34998 22.7506V5.59961C3.34998 4.35961 4.35998 3.34961 5.59998 3.34961H18.398C19.638 3.34961 20.648 4.35961 20.648 5.59961V22.7496C20.648 23.0316 20.49 23.2896 20.238 23.4176C20.132 23.4726 20.015 23.4996 19.898 23.4996H19.9ZM12 16.2496C12.155 16.2496 12.31 16.2976 12.44 16.3936L19.15 21.2766V5.59961C19.15 5.18761 18.813 4.84961 18.4 4.84961H5.59998C5.18698 4.84961 4.84998 5.18761 4.84998 5.59961V21.2766L11.56 16.3936C11.69 16.2976 11.845 16.2496 12 16.2496Z" fill="#D9D9D9"/>
</svg>
