<svg width="18" height="18" viewBox="0 0 18 18" fill="none" xmlns="http://www.w3.org/2000/svg">
<path d="M9.04967 2.16895C8.13299 2.16895 7.22528 2.3495 6.37837 2.7003C5.53147 3.0511 4.76195 3.56527 4.11376 4.21347C2.80467 5.52255 2.06924 7.29805 2.06924 9.14938C2.06313 10.7613 2.62124 12.3245 3.64681 13.568L2.25073 14.9641C2.15387 15.0622 2.08825 15.1869 2.06217 15.3223C2.03608 15.4577 2.05068 15.5978 2.10414 15.7249C2.16212 15.8505 2.2561 15.9561 2.37417 16.0282C2.49224 16.1003 2.62907 16.1356 2.76728 16.1298H9.04967C10.901 16.1298 12.6765 15.3944 13.9856 14.0853C15.2947 12.7762 16.0301 11.0007 16.0301 9.14938C16.0301 7.29805 15.2947 5.52255 13.9856 4.21347C12.6765 2.90438 10.901 2.16895 9.04967 2.16895ZM9.04967 14.7337H4.44956L5.09874 14.0845C5.22876 13.9538 5.30173 13.7768 5.30173 13.5924C5.30173 13.408 5.22876 13.2311 5.09874 13.1003C4.18472 12.1873 3.61552 10.9856 3.48814 9.69999C3.36076 8.41437 3.68307 7.12436 4.40016 6.04973C5.11725 4.97511 6.18475 4.18235 7.4208 3.80654C8.65684 3.43072 9.98495 3.49509 11.1789 3.98868C12.3728 4.48228 13.3586 5.37455 13.9684 6.51349C14.5782 7.65243 14.7742 8.96757 14.5231 10.2348C14.272 11.5021 13.5893 12.6431 12.5912 13.4635C11.5932 14.2838 10.3416 14.7327 9.04967 14.7337Z" fill="#9F9F9F"/>
</svg>
