<svg width="25" height="25" viewBox="0 0 25 25" fill="none" xmlns="http://www.w3.org/2000/svg">
<path d="M22.6747 17.1479L17.6016 18.413L12.8452 17.4302L7.97534 18.413L2.93872 17.142V16.4641C2.93872 15.6789 3.25062 14.926 3.8058 14.3708C4.36098 13.8156 5.11397 13.5037 5.89912 13.5037H19.7143C20.4994 13.5037 21.2524 13.8156 21.8076 14.3708C22.3628 14.926 22.6747 15.6789 22.6747 16.4641V17.1479ZM22.6747 19.1837V23.3717H2.93872V19.1778L7.92896 20.436L12.8412 19.4452L17.6361 20.436L22.6747 19.1837ZM9.84631 10.5433H15.7671V12.5169H9.84631V10.5433ZM12.8067 9.95122C12.0216 9.95122 11.2686 9.63932 10.7134 9.08414C10.1582 8.52896 9.84631 7.77597 9.84631 6.99082C9.84631 5.90041 10.8331 4.12417 12.8067 1.66211C14.7803 4.12417 15.7671 5.90041 15.7671 6.99082C15.7671 7.77597 15.4552 8.52896 14.9 9.08414C14.3448 9.63932 13.5919 9.95122 12.8067 9.95122Z" fill="#C8C8C8"/>
</svg>
