<svg width="20" height="20" viewBox="0 0 20 20" fill="none" xmlns="http://www.w3.org/2000/svg">
<path d="M4.16667 11.6668C5.08714 11.6668 5.83333 10.9206 5.83333 10.0002C5.83333 9.07969 5.08714 8.3335 4.16667 8.3335C3.24619 8.3335 2.5 9.07969 2.5 10.0002C2.5 10.9206 3.24619 11.6668 4.16667 11.6668Z" fill="#D9D9D9"/>
<path d="M10 11.6668C10.9205 11.6668 11.6667 10.9206 11.6667 10.0002C11.6667 9.07969 10.9205 8.3335 10 8.3335C9.07954 8.3335 8.33334 9.07969 8.33334 10.0002C8.33334 10.9206 9.07954 11.6668 10 11.6668Z" fill="#D9D9D9"/>
<path d="M15.8333 11.6668C16.7538 11.6668 17.5 10.9206 17.5 10.0002C17.5 9.07969 16.7538 8.3335 15.8333 8.3335C14.9128 8.3335 14.1667 9.07969 14.1667 10.0002C14.1667 10.9206 14.9128 11.6668 15.8333 11.6668Z" fill="#D9D9D9"/>
</svg>
