<svg width="24" height="24" viewBox="0 0 24 24" fill="none" xmlns="http://www.w3.org/2000/svg">
<path d="M20 4.00098H4C2.9 4.00098 2.01 4.90098 2.01 6.00098L2 18.001C2 19.101 2.9 20.001 4 20.001H20C21.1 20.001 22 19.101 22 18.001V6.00098C22 4.90098 21.1 4.00098 20 4.00098ZM19.6 8.25098L12.53 12.671C12.21 12.871 11.79 12.871 11.47 12.671L4.4 8.25098C4.29973 8.19469 4.21192 8.11864 4.14189 8.02743C4.07186 7.93622 4.02106 7.83175 3.99258 7.72035C3.96409 7.60894 3.9585 7.49291 3.97616 7.37928C3.99381 7.26565 4.03434 7.15679 4.09528 7.05928C4.15623 6.96176 4.23632 6.87763 4.33073 6.81197C4.42513 6.74631 4.53187 6.70049 4.6445 6.67727C4.75712 6.65406 4.87328 6.65394 4.98595 6.67692C5.09863 6.69991 5.20546 6.74551 5.3 6.81098L12 11.001L18.7 6.81098C18.7945 6.74551 18.9014 6.69991 19.014 6.67692C19.1267 6.65394 19.2429 6.65406 19.3555 6.67727C19.4681 6.70049 19.5749 6.74631 19.6693 6.81197C19.7637 6.87763 19.8438 6.96176 19.9047 7.05928C19.9657 7.15679 20.0062 7.26565 20.0238 7.37928C20.0415 7.49291 20.0359 7.60894 20.0074 7.72035C19.9789 7.83175 19.9281 7.93622 19.8581 8.02743C19.7881 8.11864 19.7003 8.19469 19.6 8.25098Z" fill="#C8C8C8"/>
</svg>
