<svg width="26" height="18" viewBox="0 0 26 18" fill="none" xmlns="http://www.w3.org/2000/svg">
<path d="M13.4447 2.54729C15.537 2.54034 17.5888 3.12396 19.3642 4.23108C21.1396 5.33819 22.5665 6.92385 23.481 8.80576C21.6034 12.6405 17.7687 15.0642 13.4447 15.0642C9.12064 15.0642 5.28591 12.6405 3.40836 8.80576C4.3228 6.92385 5.74975 5.33819 7.52516 4.23108C9.30057 3.12396 11.3524 2.54034 13.4447 2.54729ZM13.4447 0.271484C7.75516 0.271484 2.89631 3.81037 0.927734 8.80576C2.89631 13.8012 7.75516 17.34 13.4447 17.34C19.1342 17.34 23.993 13.8012 25.9616 8.80576C23.993 3.81037 19.1342 0.271484 13.4447 0.271484ZM13.4447 5.961C14.1992 5.961 14.9227 6.26072 15.4562 6.79421C15.9897 7.32771 16.2894 8.05129 16.2894 8.80576C16.2894 9.56024 15.9897 10.2838 15.4562 10.8173C14.9227 11.3508 14.1992 11.6505 13.4447 11.6505C12.6902 11.6505 11.9666 11.3508 11.4331 10.8173C10.8996 10.2838 10.5999 9.56024 10.5999 8.80576C10.5999 8.05129 10.8996 7.32771 11.4331 6.79421C11.9666 6.26072 12.6902 5.961 13.4447 5.961ZM13.4447 3.6852C10.6227 3.6852 8.32411 5.98376 8.32411 8.80576C8.32411 11.6278 10.6227 13.9263 13.4447 13.9263C16.2667 13.9263 18.5652 11.6278 18.5652 8.80576C18.5652 5.98376 16.2667 3.6852 13.4447 3.6852Z" fill="#F3F3F3"/>
</svg>
