<svg width="231" height="155" viewBox="0 0 231 155" fill="none" xmlns="http://www.w3.org/2000/svg">
<path fill-rule="evenodd" clip-rule="evenodd" d="M140.261 72.1448C140.114 72.1448 139.963 72.1112 139.822 72.0402C139.339 71.7974 139.145 71.2093 139.388 70.7262C139.84 69.827 140.484 68.075 139.72 66.4428C139.04 64.989 137.384 63.9457 134.798 63.3416C133.991 63.1531 133.217 62.6222 132.397 62.0602C130.795 60.9618 129.138 59.8264 126.91 60.6613C126.401 60.8519 125.869 61.0355 125.355 61.213C125.103 61.3001 124.849 61.3877 124.594 61.4774C124.084 61.6567 123.525 61.3888 123.346 60.8789C123.166 60.3688 123.434 59.8101 123.944 59.6309C124.203 59.54 124.461 59.451 124.716 59.3627C125.242 59.1813 125.739 59.01 126.224 58.8282C129.405 57.6359 131.775 59.26 133.504 60.4457C134.168 60.9008 134.795 61.3308 135.243 61.4355C138.443 62.1829 140.545 63.5885 141.493 65.613C142.607 67.9938 141.748 70.3894 141.137 71.6055C140.965 71.9473 140.62 72.1448 140.261 72.1448Z" fill="url(#paint0_linear_963_12066)"/>
<path fill-rule="evenodd" clip-rule="evenodd" d="M108.303 112.929C104.839 112.929 101.066 111.532 97.9278 108.784C92.0224 103.612 90.5651 95.5826 94.6794 90.8843C95.8529 89.5443 97.2725 88.6348 99.0192 88.1041C99.5365 87.9469 100.083 88.2388 100.24 88.756C100.397 89.2733 100.105 89.8199 99.5882 89.977C98.2015 90.3983 97.0775 91.1169 96.152 92.1738C92.7487 96.0602 94.1238 102.851 99.2174 107.311C104.311 111.772 111.224 112.239 114.627 108.352C115.148 107.757 115.568 107.079 115.875 106.339C116.082 105.84 116.654 105.603 117.154 105.81C117.653 106.017 117.89 106.589 117.683 107.089C117.295 108.026 116.762 108.885 116.1 109.642C114.172 111.843 111.357 112.929 108.303 112.929Z" fill="url(#paint1_linear_963_12066)"/>
<path fill-rule="evenodd" clip-rule="evenodd" d="M118.444 107.552C117.493 107.552 116.528 107.472 115.565 107.31C112.28 106.759 109.401 105.304 107.458 103.211C107.09 102.815 107.113 102.196 107.51 101.828C107.905 101.46 108.525 101.483 108.893 101.879C112.264 105.509 118.953 106.69 123.804 104.512C124.297 104.291 124.877 104.511 125.098 105.004C125.319 105.497 125.099 106.076 124.606 106.298C122.761 107.126 120.64 107.552 118.444 107.552Z" fill="url(#paint2_linear_963_12066)"/>
<path fill-rule="evenodd" clip-rule="evenodd" d="M141.574 77.7991C141.472 77.7991 141.369 77.7833 141.268 77.7497C140.754 77.5808 140.475 77.0277 140.644 76.5143C141.069 75.2221 140.643 73.6508 139.475 72.2031C138.215 70.6411 136.34 69.4669 134.698 69.2115C134.164 69.1284 133.798 68.628 133.881 68.0939C133.965 67.5599 134.465 67.1947 134.999 67.2773C137.543 67.6731 139.766 69.4464 140.998 70.9741C142.591 72.9486 143.14 75.1908 142.503 77.126C142.368 77.5377 141.985 77.7991 141.574 77.7991Z" fill="url(#paint3_linear_963_12066)"/>
<path fill-rule="evenodd" clip-rule="evenodd" d="M106.179 95.4221C104.09 95.4221 101.762 94.5701 100.08 92.4057C97.337 88.8762 97.137 84.6243 99.5451 81.0316C99.846 80.5826 100.454 80.4625 100.903 80.7636C101.352 81.0646 101.472 81.6726 101.171 82.1215C99.2559 84.9786 99.4257 88.3742 101.626 91.2044C103.349 93.4216 106.137 93.8595 108.001 93.1467C108.718 92.8721 110.37 91.9938 110.214 89.7743C110.176 89.2351 110.582 88.7673 111.121 88.7293C111.658 88.6903 112.128 89.0977 112.166 89.6368C112.338 92.0827 111.043 94.0783 108.7 94.9748C107.954 95.2603 107.089 95.4221 106.179 95.4221Z" fill="url(#paint4_linear_963_12066)"/>
<path fill-rule="evenodd" clip-rule="evenodd" d="M109.013 90.849C107.314 90.849 105.438 90.2605 103.687 88.8013C101.162 86.6973 99.641 83.6728 99.6175 80.7109C99.5969 78.1432 100.698 75.8292 102.801 74.019C103.211 73.6666 103.828 73.7129 104.181 74.1225C104.534 74.5322 104.488 75.1502 104.078 75.5028C102.425 76.9257 101.559 78.7212 101.575 80.6953C101.594 83.0535 102.883 85.5833 104.94 87.2977C106.653 88.7251 109.493 89.5934 111.682 88.1275C113.035 87.2205 113.512 85.7463 112.989 84.0826C112.827 83.567 113.114 83.0177 113.629 82.8556C114.145 82.6936 114.694 82.9802 114.856 83.4958C115.635 85.9727 114.836 88.3703 112.771 89.7537C111.766 90.4267 110.453 90.849 109.013 90.849Z" fill="url(#paint5_linear_963_12066)"/>
<path fill-rule="evenodd" clip-rule="evenodd" d="M111.092 85.0891C110.126 85.0891 109.193 84.8968 108.386 84.4935C104.368 82.4843 102.801 78.6546 102.674 75.7403C102.59 73.8017 103.698 69.8999 107.033 67.6832C107.483 67.384 108.091 67.5065 108.39 67.9566C108.689 68.4068 108.567 69.0143 108.117 69.3133C105.622 70.9718 104.561 74.0781 104.629 75.6553C104.665 76.4699 105.054 80.6393 109.261 82.7427C110.951 83.5879 113.696 82.9979 115.254 81.4547C116.225 80.4938 117.114 78.7987 115.837 76.1799C115.6 75.6941 115.802 75.1082 116.287 74.8713C116.773 74.6343 117.359 74.836 117.596 75.322C118.969 78.1372 118.617 80.8795 116.632 82.8457C115.174 84.2885 113.064 85.0891 111.092 85.0891Z" fill="url(#paint6_linear_963_12066)"/>
<path fill-rule="evenodd" clip-rule="evenodd" d="M115.727 76.4986C113.397 76.4986 111.132 75.7215 109.299 74.2322C107.658 72.8988 106.285 69.8044 106.973 66.6957C107.856 62.7053 111.589 61.2026 113.735 60.662C114.624 60.4382 115.426 60.1628 116.202 59.8964C118.625 59.0642 120.915 58.2782 124.128 59.8766C125.368 60.4929 126.696 60.8104 127.981 61.1173C131.093 61.8607 134.311 62.6295 135.064 67.6206C135.145 68.1551 134.777 68.6537 134.242 68.7344C133.709 68.8146 133.209 68.4472 133.128 67.9127C132.572 64.2266 130.565 63.7471 127.526 63.0211C126.199 62.7042 124.696 62.345 123.257 61.6291C120.776 60.3953 119.124 60.9626 116.837 61.7477C116.023 62.0272 115.182 62.3162 114.213 62.5602C111.22 63.3139 109.378 64.8903 108.884 67.1187C108.391 69.3459 109.357 71.7568 110.534 72.713C112.723 74.4917 115.686 75.0101 118.46 74.0998C121.4 73.1349 123.573 70.7118 124.42 67.4516C124.556 66.9285 125.09 66.6151 125.614 66.7507C126.137 66.8866 126.45 67.421 126.315 67.9442C125.296 71.8615 122.656 74.7831 119.07 75.9596C117.968 76.3212 116.84 76.4986 115.727 76.4986Z" fill="url(#paint7_linear_963_12066)"/>
<path fill-rule="evenodd" clip-rule="evenodd" d="M144.046 87.1985C143.953 87.1985 143.857 87.1848 143.762 87.1562C143.245 86.9997 142.953 86.4533 143.109 85.936C143.997 83.0045 143.471 80.2844 141.665 78.473C139.2 75.9994 134.787 75.4774 129.557 77.0411C129.039 77.196 128.494 76.9017 128.339 76.3837C128.184 75.866 128.479 75.3206 128.997 75.1658C134.939 73.3891 140.062 74.0909 143.052 77.0913C145.382 79.4294 146.086 82.8599 144.983 86.5031C144.855 86.9259 144.466 87.1985 144.046 87.1985Z" fill="url(#paint8_linear_963_12066)"/>
<path fill-rule="evenodd" clip-rule="evenodd" d="M145.634 94.9142C145.568 94.9142 145.501 94.9075 145.434 94.8937C144.904 94.7835 144.565 94.2652 144.675 93.736C145.33 90.5867 144.591 87.8703 142.648 86.2839C140.098 84.2013 135.888 84.1893 131.096 86.2507C130.6 86.4641 130.024 86.2351 129.81 85.7386C129.597 85.242 129.826 84.6664 130.323 84.4527C135.808 82.0929 140.751 82.2076 143.887 84.7677C146.414 86.8319 147.4 90.2459 146.591 94.1348C146.495 94.5967 146.088 94.9142 145.634 94.9142Z" fill="url(#paint9_linear_963_12066)"/>
<path fill-rule="evenodd" clip-rule="evenodd" d="M140.443 93.6301C137.972 93.6301 135.205 94.3669 132.592 95.8753C129.699 97.5456 127.444 99.8977 126.243 102.498C125.095 104.983 125.061 107.388 126.147 109.269C128.456 113.268 135.105 113.768 140.968 110.383C146.832 106.998 149.723 100.99 147.414 96.9897C146.134 94.7721 143.518 93.6301 140.443 93.6301ZM133.148 114.577C132.721 114.577 132.298 114.558 131.88 114.52C128.503 114.212 125.864 112.694 124.451 110.247C123.039 107.8 123.044 104.756 124.466 101.677C125.835 98.7132 128.373 96.0507 131.614 94.18C134.854 92.3094 138.429 91.442 141.68 91.7387C145.058 92.0466 147.696 93.5637 149.109 96.011C150.522 98.4583 150.517 101.502 149.095 104.581C147.726 107.545 145.187 110.208 141.947 112.078C139.123 113.709 136.045 114.577 133.148 114.577Z" fill="url(#paint10_linear_963_12066)"/>
<path fill-rule="evenodd" clip-rule="evenodd" d="M131.598 109.518C131.259 109.518 130.931 109.343 130.749 109.029C130.08 107.869 130.271 106.368 131.286 104.8C132.175 103.43 133.626 102.12 135.373 101.111C139.305 98.8412 143.246 98.8216 144.542 101.065C144.812 101.534 144.652 102.132 144.184 102.402C143.716 102.672 143.117 102.512 142.847 102.044C142.307 101.109 139.574 100.946 136.352 102.806C134.889 103.651 133.642 104.766 132.929 105.865C132.351 106.757 132.17 107.574 132.445 108.05C132.715 108.518 132.554 109.117 132.086 109.387C131.932 109.476 131.764 109.518 131.598 109.518Z" fill="url(#paint11_linear_963_12066)"/>
<path fill-rule="evenodd" clip-rule="evenodd" d="M123.963 72.11C123.705 72.11 123.447 72.0088 123.255 71.8077C122.882 71.4172 122.895 70.7977 123.286 70.4239C125.177 68.6156 128.078 67.3691 131.047 67.0896C134.336 66.7795 137.355 67.6342 139.549 69.495C139.961 69.8447 140.011 70.4624 139.662 70.8746C139.312 71.2865 138.694 71.3374 138.282 70.9875C136.495 69.4708 133.99 68.7787 131.23 69.0384C128.686 69.278 126.222 70.3247 124.639 71.8386C124.449 72.0198 124.206 72.11 123.963 72.11Z" fill="url(#paint12_linear_963_12066)"/>
<path fill-rule="evenodd" clip-rule="evenodd" d="M95.2456 66.1348L99.9737 68.5929L95.2456 66.1348Z" fill="#E6E6E6"/>
<path fill-rule="evenodd" clip-rule="evenodd" d="M99.9724 69.5712C99.8203 69.5712 99.6661 69.5357 99.5216 69.4606L94.7935 67.0025C94.3139 66.7531 94.1273 66.1622 94.3767 65.6827C94.626 65.2031 95.2169 65.0166 95.6964 65.2657L100.425 67.724C100.904 67.9732 101.091 68.5641 100.842 69.0438C100.667 69.3789 100.326 69.5712 99.9724 69.5712Z" fill="url(#paint13_linear_963_12066)"/>
<path fill-rule="evenodd" clip-rule="evenodd" d="M105.312 52.6729L108.472 56.6527L105.312 52.6729Z" fill="#E6E6E6"/>
<path fill-rule="evenodd" clip-rule="evenodd" d="M108.473 57.6317C108.185 57.6317 107.899 57.5049 107.706 57.2616L104.546 53.2818C104.21 52.8585 104.28 52.2429 104.704 51.9067C105.127 51.5705 105.742 51.6411 106.079 52.0646L109.239 56.0443C109.575 56.4676 109.505 57.0832 109.081 57.4194C108.901 57.5622 108.686 57.6317 108.473 57.6317Z" fill="url(#paint14_linear_963_12066)"/>
<path fill-rule="evenodd" clip-rule="evenodd" d="M122.377 46.9375L122.339 52.1515L122.377 46.9375Z" fill="#E6E6E6"/>
<path fill-rule="evenodd" clip-rule="evenodd" d="M122.338 53.1304H122.331C121.79 53.1263 121.355 52.6849 121.359 52.1444L121.398 46.9306C121.402 46.3924 121.839 45.959 122.376 45.959H122.384C122.924 45.963 123.359 46.4044 123.355 46.945L123.317 52.1588C123.313 52.6969 122.875 53.1304 122.338 53.1304Z" fill="url(#paint15_linear_963_12066)"/>
<path fill-rule="evenodd" clip-rule="evenodd" d="M151.172 66.4854L146.444 68.9436L151.172 66.4854Z" fill="#E6E6E6"/>
<path fill-rule="evenodd" clip-rule="evenodd" d="M146.445 69.9228C146.092 69.9228 145.75 69.7307 145.576 69.3954C145.327 68.9157 145.513 68.3248 145.993 68.0755L150.721 65.6173C151.2 65.3682 151.791 65.5545 152.041 66.0342C152.29 66.5138 152.104 67.1047 151.624 67.3541L146.896 69.8122C146.751 69.8873 146.597 69.9228 146.445 69.9228Z" fill="url(#paint16_linear_963_12066)"/>
<path fill-rule="evenodd" clip-rule="evenodd" d="M141.457 53.2578L138.179 57.1206L141.457 53.2578Z" fill="#E6E6E6"/>
<path fill-rule="evenodd" clip-rule="evenodd" d="M138.179 58.0996C137.955 58.0996 137.73 58.0232 137.546 57.867C137.134 57.5174 137.083 56.8998 137.433 56.4876L140.711 52.6248C141.06 52.2128 141.678 52.1619 142.09 52.5119C142.502 52.8615 142.553 53.4791 142.203 53.8913L138.926 57.7541C138.732 57.9823 138.456 58.0996 138.179 58.0996Z" fill="url(#paint17_linear_963_12066)"/>
<path fill-rule="evenodd" clip-rule="evenodd" d="M104.474 121.341L107.634 117.361L104.474 121.341Z" fill="#E6E6E6"/>
<path fill-rule="evenodd" clip-rule="evenodd" d="M104.473 122.32C104.26 122.32 104.045 122.251 103.865 122.108C103.442 121.772 103.371 121.156 103.707 120.733L106.868 116.753C107.204 116.33 107.82 116.259 108.243 116.595C108.666 116.931 108.737 117.547 108.401 117.97L105.24 121.95C105.047 122.194 104.762 122.32 104.473 122.32Z" fill="url(#paint18_linear_963_12066)"/>
<path fill-rule="evenodd" clip-rule="evenodd" d="M121.538 127.077L121.5 121.863L121.538 127.077Z" fill="#E6E6E6"/>
<path fill-rule="evenodd" clip-rule="evenodd" d="M121.538 128.056C121.001 128.056 120.563 127.623 120.559 127.085L120.521 121.871C120.517 121.33 120.952 120.889 121.492 120.885H121.5C122.037 120.885 122.474 121.318 122.478 121.856L122.517 127.07C122.521 127.611 122.086 128.052 121.545 128.056H121.538Z" fill="url(#paint19_linear_963_12066)"/>
<path fill-rule="evenodd" clip-rule="evenodd" d="M139.002 121.341L135.841 117.361L139.002 121.341Z" fill="#E6E6E6"/>
<path fill-rule="evenodd" clip-rule="evenodd" d="M139.003 122.32C138.714 122.32 138.429 122.193 138.236 121.95L135.075 117.97C134.739 117.547 134.81 116.931 135.233 116.595C135.656 116.259 136.272 116.33 136.608 116.753L139.768 120.733C140.105 121.156 140.034 121.772 139.611 122.108C139.431 122.251 139.216 122.32 139.003 122.32Z" fill="url(#paint20_linear_963_12066)"/>
<path d="M6.51024 94.013C5.44702 94.013 4.59108 93.8423 3.94242 93.5009C3.29864 93.1595 2.83043 92.6742 2.5378 92.045C2.24517 91.411 2.09886 90.6648 2.09886 89.8064C2.09886 89.6162 2.09886 89.365 2.09886 89.0529C2.09886 88.7359 2.09886 88.3896 2.09886 88.0141C2.09886 87.6336 2.09886 87.2532 2.09886 86.8728C2.09886 86.1998 2.09886 85.5926 2.09886 85.0512C2.09886 84.5098 2.09886 83.9538 2.09886 83.3832H4.49842C4.49842 83.9538 4.49842 84.5098 4.49842 85.0512C4.49842 85.5926 4.49842 86.1998 4.49842 86.8728V89.6747C4.49842 90.1722 4.5667 90.5965 4.70326 90.9477C4.83982 91.2988 5.05441 91.5671 5.34704 91.7524C5.64455 91.9377 6.02984 92.0304 6.50293 92.0304C6.98089 92.0304 7.36374 91.9377 7.65149 91.7524C7.94412 91.5671 8.15384 91.2988 8.28065 90.9477C8.41233 90.5965 8.47817 90.1698 8.47817 89.6674V86.8728C8.47817 86.1998 8.47817 85.5926 8.47817 85.0512C8.47817 84.5098 8.47817 83.9538 8.47817 83.3832H10.8777C10.8777 83.9538 10.8777 84.5098 10.8777 85.0512C10.8777 85.5926 10.8777 86.1998 10.8777 86.8728C10.8777 87.2532 10.8777 87.6361 10.8777 88.0214C10.8777 88.4018 10.8777 88.7505 10.8777 89.0675C10.8777 89.3845 10.8777 89.6333 10.8777 89.8137C10.8777 90.6721 10.7241 91.4159 10.4168 92.045C10.1096 92.6742 9.63406 93.1595 8.99027 93.5009C8.34649 93.8423 7.51981 94.013 6.51024 94.013ZM12.8532 93.8154C12.8532 93.2546 12.8532 92.7108 12.8532 92.184C12.8532 91.6573 12.8532 91.0672 12.8532 90.4136V86.8728C12.8532 86.1998 12.8532 85.5926 12.8532 85.0512C12.8532 84.5098 12.8532 83.9538 12.8532 83.3832H14.9528C15.4405 84.0953 15.9014 84.7683 16.3355 85.4023C16.7696 86.0315 17.2036 86.6631 17.6377 87.2971L19.3349 89.7552H19.5105V86.8728C19.5105 86.1998 19.5105 85.5926 19.5105 85.0512C19.5105 84.5098 19.5105 83.9538 19.5105 83.3832H21.7711C21.7711 83.9538 21.7711 84.5098 21.7711 85.0512C21.7711 85.5926 21.7711 86.1998 21.7711 86.8728V90.4136C21.7711 91.0672 21.7711 91.6573 21.7711 92.184C21.7711 92.7108 21.7711 93.2546 21.7711 93.8154H19.6934C19.2935 93.2302 18.874 92.6205 18.4351 91.9865C17.9962 91.3525 17.5158 90.6599 16.9939 89.9088L15.2747 87.4215H15.1064V90.4136C15.1064 91.0672 15.1064 91.6573 15.1064 92.184C15.1064 92.7108 15.1064 93.2546 15.1064 93.8154H12.8532ZM23.8707 93.8154C23.8707 93.2546 23.8707 92.7108 23.8707 92.184C23.8707 91.6573 23.8707 91.0672 23.8707 90.4136V86.8728C23.8707 86.1998 23.8707 85.5926 23.8707 85.0512C23.8707 84.5098 23.8707 83.9538 23.8707 83.3832H26.3288C26.3288 83.9538 26.3288 84.5098 26.3288 85.0512C26.3288 85.5926 26.3288 86.1998 26.3288 86.8728V90.4136C26.3288 91.0672 26.3288 91.6573 26.3288 92.184C26.3288 92.7108 26.3288 93.2546 26.3288 93.8154H23.8707ZM30.9663 93.8154C30.8053 93.2936 30.6322 92.7376 30.4468 92.1474C30.2664 91.5573 30.0981 91.0111 29.9421 90.5087L28.9252 87.2386C28.8081 86.8679 28.6813 86.4631 28.5447 86.0242C28.4082 85.5804 28.2692 85.1341 28.1278 84.6854C27.9863 84.2318 27.8522 83.7978 27.7254 83.3832H30.3956C30.5712 84.0416 30.7565 84.7464 30.9516 85.4974C31.1516 86.2437 31.3369 86.946 31.5076 87.6044L32.4952 91.372H32.6708L33.7097 87.5824C33.895 86.9143 34.0852 86.2193 34.2803 85.4974C34.4802 84.7708 34.6729 84.066 34.8582 83.3832H37.4553C37.3236 83.8026 37.1871 84.2367 37.0456 84.6854C36.9091 85.1341 36.7725 85.5755 36.6359 86.0096C36.4994 86.4387 36.3726 86.846 36.2555 87.2313L35.224 90.516C35.0631 91.0281 34.8924 91.5744 34.7119 92.1548C34.5315 92.7351 34.3583 93.2887 34.1925 93.8154H30.9663ZM38.8081 93.8154C38.8081 93.2546 38.8081 92.7108 38.8081 92.184C38.8081 91.6573 38.8081 91.0672 38.8081 90.4136V86.8728C38.8081 86.1998 38.8081 85.5926 38.8081 85.0512C38.8081 84.5098 38.8081 83.9538 38.8081 83.3832H45.7361V85.3511C45.2874 85.3511 44.8046 85.3511 44.2876 85.3511C43.7755 85.3511 43.1708 85.3511 42.4733 85.3511H40.0152L41.1638 83.7636C41.1638 84.3342 41.1638 84.8902 41.1638 85.4316C41.1638 85.973 41.1638 86.5802 41.1638 87.2532V90.0332C41.1638 90.6819 41.1638 91.272 41.1638 91.8036C41.1638 92.3303 41.1638 92.8741 41.1638 93.435L40.1689 91.8475H42.6489C43.2293 91.8475 43.778 91.8475 44.2949 91.8475C44.8168 91.8475 45.3191 91.8475 45.802 91.8475V93.8154H38.8081ZM40.6151 89.4699V87.641H42.5245C43.1683 87.641 43.7194 87.641 44.1779 87.641C44.6363 87.641 45.0777 87.641 45.502 87.641V89.4699C45.0533 89.4699 44.5998 89.4699 44.1413 89.4699C43.6829 89.4699 43.1439 89.4699 42.5245 89.4699H40.6151ZM47.5384 93.8154C47.5384 93.2546 47.5384 92.7108 47.5384 92.184C47.5384 91.6573 47.5384 91.0672 47.5384 90.4136V86.8728C47.5384 86.1998 47.5384 85.5926 47.5384 85.0512C47.5384 84.5098 47.5384 83.9538 47.5384 83.3832C47.8554 83.3832 48.2285 83.3832 48.6577 83.3832C49.0918 83.3832 49.5551 83.3832 50.0477 83.3832C50.5403 83.3832 51.0378 83.3832 51.5401 83.3832C52.3888 83.3832 53.1057 83.4783 53.691 83.6685C54.2811 83.8538 54.7274 84.166 55.0297 84.6049C55.337 85.0439 55.4906 85.6413 55.4906 86.3973C55.4906 86.9972 55.3711 87.5361 55.1322 88.0141C54.8981 88.492 54.5201 88.87 53.9982 89.148C53.4764 89.426 52.7936 89.565 51.9498 89.565L52.8789 88.6871L54.2982 90.7794C54.5176 91.1013 54.7517 91.4476 55.0005 91.8182C55.2492 92.184 55.4906 92.5425 55.7247 92.8936C55.9637 93.2399 56.1734 93.5472 56.3539 93.8154H53.6251C53.3617 93.4057 53.1081 93.0131 52.8643 92.6376C52.6204 92.2621 52.3839 91.8963 52.1547 91.5402L50.4647 88.8773L51.8913 89.9674H49.4698V88.2482H51.2109C51.6011 88.2482 51.9279 88.2018 52.1912 88.1092C52.4595 88.0116 52.6619 87.8482 52.7984 87.619C52.935 87.3898 53.0033 87.0752 53.0033 86.6753C53.0033 86.3778 52.9594 86.1388 52.8716 85.9583C52.7838 85.773 52.6643 85.6291 52.5131 85.5267C52.3668 85.4243 52.201 85.356 52.0157 85.3219C51.8352 85.2877 51.6523 85.2707 51.467 85.2707H48.1895L49.9014 83.7636C49.9014 84.3538 49.9014 84.9195 49.9014 85.4609C49.9014 85.9974 49.9014 86.5948 49.9014 87.2532V90.4136C49.9014 91.0672 49.9014 91.6573 49.9014 92.184C49.9014 92.7108 49.9014 93.2546 49.9014 93.8154H47.5384ZM60.976 94.0056C60.542 94.0056 60.0957 93.9691 59.6373 93.8959C59.1837 93.8276 58.7569 93.7374 58.357 93.6252C57.962 93.513 57.6401 93.396 57.3913 93.2741L57.5669 91.1598C57.9034 91.35 58.2546 91.5134 58.6204 91.65C58.991 91.7817 59.3593 91.8841 59.7251 91.9572C60.0957 92.0304 60.4493 92.067 60.7858 92.067C61.1224 92.067 61.415 92.0255 61.6637 91.9426C61.9125 91.8597 62.1051 91.7353 62.2417 91.5695C62.3782 91.3988 62.4465 91.1793 62.4465 90.9111C62.4465 90.638 62.3563 90.4136 62.1758 90.238C62.0003 90.0576 61.7466 89.9015 61.415 89.7698C61.0833 89.6333 60.6883 89.4992 60.2298 89.3675C59.5958 89.1821 59.0545 88.9675 58.6058 88.7237C58.1571 88.4749 57.8132 88.1579 57.5742 87.7726C57.3401 87.3825 57.2231 86.8826 57.2231 86.2729C57.2231 85.6633 57.3572 85.1268 57.6254 84.6635C57.8937 84.1952 58.2985 83.8295 58.8399 83.5661C59.3812 83.3027 60.0665 83.171 60.8956 83.171C61.2223 83.171 61.5491 83.193 61.8759 83.2369C62.2027 83.2759 62.5197 83.3296 62.8269 83.3978C63.1391 83.4661 63.4268 83.5442 63.6902 83.6319C63.9536 83.7197 64.1828 83.8124 64.3779 83.9099L64.195 86.0315C63.8828 85.8364 63.5585 85.673 63.222 85.5413C62.8855 85.4097 62.5562 85.3097 62.2344 85.2414C61.9125 85.1731 61.6198 85.139 61.3565 85.139C61.059 85.139 60.7883 85.178 60.5444 85.256C60.3054 85.3341 60.1152 85.4536 59.9738 85.6145C59.8324 85.7754 59.7616 85.9778 59.7616 86.2217C59.7616 86.4607 59.8275 86.6631 59.9592 86.8289C60.0957 86.9899 60.303 87.1337 60.581 87.2605C60.8639 87.3825 61.2272 87.5093 61.671 87.641C62.505 87.8897 63.1635 88.1506 63.6463 88.4237C64.1291 88.692 64.4705 89.0163 64.6705 89.3967C64.8753 89.7771 64.9778 90.2551 64.9778 90.8306C64.9778 91.4695 64.8388 92.028 64.5608 92.5059C64.2828 92.979 63.8487 93.3472 63.2586 93.6106C62.6684 93.874 61.9076 94.0056 60.976 94.0056ZM65.7252 93.8154C65.9105 93.2546 66.1032 92.6644 66.3032 92.045C66.508 91.4256 66.7006 90.8379 66.8811 90.2819L68.0589 86.7045C68.2686 86.0559 68.4589 85.4731 68.6296 84.9561C68.8003 84.4342 68.971 83.9099 69.1417 83.3832H72.2435C72.4191 83.9294 72.5898 84.4611 72.7556 84.978C72.9263 85.495 73.1165 86.0705 73.3263 86.7045L74.4895 90.2892C74.6797 90.8648 74.8723 91.4573 75.0674 92.067C75.2674 92.6766 75.4576 93.2594 75.638 93.8154H73.1507C72.9946 93.2594 72.8337 92.6912 72.6678 92.1109C72.502 91.5256 72.3435 90.9721 72.1923 90.4502L70.7584 85.4243H70.5829L69.1343 90.399C68.9783 90.9403 68.8125 91.5085 68.6369 92.1035C68.4662 92.6937 68.3003 93.2643 68.1394 93.8154H65.7252ZM68.2418 91.6353L68.4979 89.8357H73.158L73.3628 91.6353H68.2418ZM76.9658 93.8154C76.9658 93.2546 76.9658 92.7108 76.9658 92.184C76.9658 91.6573 76.9658 91.0672 76.9658 90.4136V86.8728C76.9658 86.1998 76.9658 85.5926 76.9658 85.0512C76.9658 84.5098 76.9658 83.9538 76.9658 83.3832H79.3727C79.3727 83.9538 79.3727 84.5098 79.3727 85.0512C79.3727 85.5926 79.3727 86.1998 79.3727 86.8728V90.0259C79.3727 90.6794 79.3727 91.2696 79.3727 91.7963C79.3727 92.323 79.3727 92.8668 79.3727 93.4277L78.5387 91.7158H80.5798C81.087 91.7158 81.5308 91.7158 81.9113 91.7158C82.2965 91.7158 82.6526 91.7158 82.9793 91.7158C83.311 91.7158 83.65 91.7158 83.9962 91.7158V93.8154H76.9658Z" fill="#EFF6FF"/>
<path d="M164.996 94.013C164.147 94.013 163.384 93.8837 162.706 93.6252C162.028 93.3667 161.447 92.9985 160.965 92.5205C160.487 92.0377 160.121 91.4671 159.867 90.8087C159.614 90.1454 159.487 89.4114 159.487 88.6066C159.487 87.5629 159.699 86.6314 160.123 85.812C160.548 84.9878 161.157 84.3416 161.952 83.8734C162.747 83.4052 163.698 83.171 164.805 83.171C165.142 83.171 165.474 83.193 165.8 83.2369C166.132 83.2808 166.449 83.3393 166.751 83.4125C167.054 83.4856 167.334 83.571 167.593 83.6685C167.856 83.7612 168.09 83.8612 168.295 83.9685L168.112 86.2071C167.732 85.9681 167.366 85.7779 167.015 85.6364C166.664 85.4901 166.325 85.3853 165.998 85.3219C165.676 85.2536 165.369 85.2195 165.076 85.2195C164.481 85.2195 163.952 85.3511 163.489 85.6145C163.025 85.873 162.659 86.2558 162.391 86.7631C162.128 87.2654 161.996 87.8799 161.996 88.6066C161.996 89.07 162.064 89.5089 162.201 89.9235C162.338 90.3331 162.542 90.6965 162.816 91.0135C163.094 91.3305 163.44 91.5793 163.854 91.7597C164.269 91.9402 164.754 92.0304 165.31 92.0304C165.539 92.0304 165.769 92.0158 165.998 91.9865C166.232 91.9524 166.466 91.9011 166.7 91.8329C166.934 91.7646 167.168 91.6719 167.402 91.5549C167.637 91.4329 167.871 91.2866 168.105 91.1159L168.236 93.3253C168.027 93.4423 167.795 93.5447 167.541 93.6325C167.288 93.7203 167.02 93.791 166.737 93.8447C166.459 93.9032 166.171 93.9447 165.873 93.9691C165.581 93.9983 165.288 94.013 164.996 94.013ZM174.946 94.013C174.005 94.013 173.191 93.8691 172.503 93.5813C171.815 93.2887 171.249 92.8912 170.806 92.3889C170.362 91.8816 170.03 91.3037 169.811 90.655C169.596 90.0064 169.489 89.3236 169.489 88.6066C169.489 87.5922 169.689 86.6753 170.089 85.8559C170.494 85.0317 171.093 84.3781 171.888 83.8953C172.688 83.4125 173.686 83.171 174.881 83.171C175.788 83.171 176.58 83.3125 177.258 83.5954C177.936 83.8734 178.499 84.2611 178.948 84.7586C179.402 85.256 179.741 85.8315 179.965 86.4851C180.189 87.1386 180.301 87.8409 180.301 88.592C180.301 89.6308 180.094 90.5575 179.68 91.372C179.27 92.1865 178.668 92.8302 177.873 93.3033C177.078 93.7764 176.102 94.013 174.946 94.013ZM174.91 92.0304C175.393 92.0304 175.814 91.9402 176.175 91.7597C176.536 91.5744 176.836 91.3208 177.075 90.9989C177.314 90.677 177.492 90.3112 177.609 89.9015C177.731 89.487 177.792 89.0505 177.792 88.592C177.792 88.1092 177.726 87.6605 177.595 87.2459C177.468 86.8265 177.28 86.4607 177.031 86.1485C176.787 85.8364 176.488 85.5926 176.131 85.417C175.775 85.2414 175.368 85.1536 174.91 85.1536C174.437 85.1536 174.017 85.2438 173.651 85.4243C173.291 85.6047 172.988 85.8559 172.744 86.1778C172.5 86.4948 172.315 86.8606 172.188 87.2752C172.062 87.6897 171.998 88.1287 171.998 88.592C171.998 89.0553 172.059 89.4943 172.181 89.9088C172.303 90.3185 172.483 90.6843 172.722 91.0062C172.966 91.3232 173.269 91.5744 173.63 91.7597C173.995 91.9402 174.422 92.0304 174.91 92.0304ZM181.888 93.8154C181.888 93.2546 181.888 92.7108 181.888 92.184C181.888 91.6573 181.888 91.0672 181.888 90.4136V86.8728C181.888 86.1998 181.888 85.5926 181.888 85.0512C181.888 84.5098 181.888 83.9538 181.888 83.3832H183.988C184.476 84.0953 184.937 84.7683 185.371 85.4023C185.805 86.0315 186.239 86.6631 186.673 87.2971L188.37 89.7552H188.546V86.8728C188.546 86.1998 188.546 85.5926 188.546 85.0512C188.546 84.5098 188.546 83.9538 188.546 83.3832H190.806C190.806 83.9538 190.806 84.5098 190.806 85.0512C190.806 85.5926 190.806 86.1998 190.806 86.8728V90.4136C190.806 91.0672 190.806 91.6573 190.806 92.184C190.806 92.7108 190.806 93.2546 190.806 93.8154H188.728C188.329 93.2302 187.909 92.6205 187.47 91.9865C187.031 91.3525 186.551 90.6599 186.029 89.9088L184.31 87.4215H184.142V90.4136C184.142 91.0672 184.142 91.6573 184.142 92.184C184.142 92.7108 184.142 93.2546 184.142 93.8154H181.888ZM192.862 93.8154C192.862 93.2546 192.862 92.7108 192.862 92.184C192.862 91.6573 192.862 91.0672 192.862 90.4136V86.8728C192.862 86.1998 192.862 85.5926 192.862 85.0512C192.862 84.5098 192.862 83.9538 192.862 83.3832H194.961C195.449 84.0953 195.91 84.7683 196.344 85.4023C196.778 86.0315 197.212 86.6631 197.646 87.2971L199.344 89.7552H199.519V86.8728C199.519 86.1998 199.519 85.5926 199.519 85.0512C199.519 84.5098 199.519 83.9538 199.519 83.3832H201.78C201.78 83.9538 201.78 84.5098 201.78 85.0512C201.78 85.5926 201.78 86.1998 201.78 86.8728V90.4136C201.78 91.0672 201.78 91.6573 201.78 92.184C201.78 92.7108 201.78 93.2546 201.78 93.8154H199.702C199.302 93.2302 198.883 92.6205 198.444 91.9865C198.005 91.3525 197.524 90.6599 197.003 89.9088L195.283 87.4215H195.115V90.4136C195.115 91.0672 195.115 91.6573 195.115 92.184C195.115 92.7108 195.115 93.2546 195.115 93.8154H192.862ZM203.828 93.8154C203.828 93.2546 203.828 92.7108 203.828 92.184C203.828 91.6573 203.828 91.0672 203.828 90.4136V86.8728C203.828 86.1998 203.828 85.5926 203.828 85.0512C203.828 84.5098 203.828 83.9538 203.828 83.3832H210.756V85.3511C210.307 85.3511 209.825 85.3511 209.308 85.3511C208.796 85.3511 208.191 85.3511 207.493 85.3511H205.035L206.184 83.7636C206.184 84.3342 206.184 84.8902 206.184 85.4316C206.184 85.973 206.184 86.5802 206.184 87.2532V90.0332C206.184 90.6819 206.184 91.272 206.184 91.8036C206.184 92.3303 206.184 92.8741 206.184 93.435L205.189 91.8475H207.669C208.249 91.8475 208.798 91.8475 209.315 91.8475C209.837 91.8475 210.339 91.8475 210.822 91.8475V93.8154H203.828ZM205.635 89.4699V87.641H207.545C208.188 87.641 208.739 87.641 209.198 87.641C209.656 87.641 210.098 87.641 210.522 87.641V89.4699C210.073 89.4699 209.62 89.4699 209.161 89.4699C208.703 89.4699 208.164 89.4699 207.545 89.4699H205.635ZM217.592 94.013C216.743 94.013 215.98 93.8837 215.302 93.6252C214.624 93.3667 214.044 92.9985 213.561 92.5205C213.083 92.0377 212.717 91.4671 212.463 90.8087C212.21 90.1454 212.083 89.4114 212.083 88.6066C212.083 87.5629 212.295 86.6314 212.719 85.812C213.144 84.9878 213.753 84.3416 214.548 83.8734C215.343 83.4052 216.294 83.171 217.401 83.171C217.738 83.171 218.07 83.193 218.396 83.2369C218.728 83.2808 219.045 83.3393 219.347 83.4125C219.65 83.4856 219.93 83.571 220.189 83.6685C220.452 83.7612 220.686 83.8612 220.891 83.9685L220.708 86.2071C220.328 85.9681 219.962 85.7779 219.611 85.6364C219.26 85.4901 218.921 85.3853 218.594 85.3219C218.272 85.2536 217.965 85.2195 217.672 85.2195C217.077 85.2195 216.548 85.3511 216.085 85.6145C215.621 85.873 215.256 86.2558 214.987 86.7631C214.724 87.2654 214.592 87.8799 214.592 88.6066C214.592 89.07 214.66 89.5089 214.797 89.9235C214.934 90.3331 215.138 90.6965 215.412 91.0135C215.69 91.3305 216.036 91.5793 216.45 91.7597C216.865 91.9402 217.35 92.0304 217.906 92.0304C218.135 92.0304 218.365 92.0158 218.594 91.9865C218.828 91.9524 219.062 91.9011 219.296 91.8329C219.53 91.7646 219.764 91.6719 219.999 91.5549C220.233 91.4329 220.467 91.2866 220.701 91.1159L220.833 93.3253C220.623 93.4423 220.391 93.5447 220.138 93.6325C219.884 93.7203 219.616 93.791 219.333 93.8447C219.055 93.9032 218.767 93.9447 218.47 93.9691C218.177 93.9983 217.884 94.013 217.592 94.013ZM225.062 93.8154C225.062 93.2546 225.062 92.7108 225.062 92.184C225.062 91.6573 225.062 91.0672 225.062 90.4136V87.2532C225.062 86.5802 225.062 85.973 225.062 85.4316C225.062 84.8902 225.062 84.3342 225.062 83.7636L225.97 85.4828H224.587C224.036 85.4828 223.548 85.4828 223.124 85.4828C222.699 85.4828 222.295 85.4828 221.909 85.4828V83.3832H230.608V85.4828C230.227 85.4828 229.825 85.4828 229.401 85.4828C228.976 85.4828 228.486 85.4828 227.93 85.4828H226.547L227.462 83.7636C227.462 84.3342 227.462 84.8902 227.462 85.4316C227.462 85.973 227.462 86.5802 227.462 87.2532V90.4136C227.462 91.0672 227.462 91.6573 227.462 92.184C227.462 92.7108 227.462 93.2546 227.462 93.8154H225.062Z" fill="#EFF6FF"/>
<defs>
<linearGradient id="paint0_linear_963_12066" x1="123.29" y1="53.5829" x2="142.574" y2="56.8117" gradientUnits="userSpaceOnUse">
<stop offset="0.320408" stop-color="#D9499B"/>
<stop offset="1" stop-color="#0DFF80"/>
</linearGradient>
<linearGradient id="paint1_linear_963_12066" x1="92.3408" y1="79.3191" x2="118.809" y2="82.6383" gradientUnits="userSpaceOnUse">
<stop offset="0.320408" stop-color="#D9499B"/>
<stop offset="1" stop-color="#0DFF80"/>
</linearGradient>
<linearGradient id="paint2_linear_963_12066" x1="107.197" y1="99.4622" x2="123.945" y2="105.637" gradientUnits="userSpaceOnUse">
<stop offset="0.320408" stop-color="#D9499B"/>
<stop offset="1" stop-color="#0DFF80"/>
</linearGradient>
<linearGradient id="paint3_linear_963_12066" x1="133.87" y1="63.5625" x2="143.176" y2="64.5264" gradientUnits="userSpaceOnUse">
<stop offset="0.320408" stop-color="#D9499B"/>
<stop offset="1" stop-color="#0DFF80"/>
</linearGradient>
<linearGradient id="paint4_linear_963_12066" x1="97.8711" y1="75.3859" x2="112.798" y2="77.1538" gradientUnits="userSpaceOnUse">
<stop offset="0.320408" stop-color="#D9499B"/>
<stop offset="1" stop-color="#0DFF80"/>
</linearGradient>
<linearGradient id="paint5_linear_963_12066" x1="99.6172" y1="67.7822" x2="115.844" y2="69.5939" gradientUnits="userSpaceOnUse">
<stop offset="0.320408" stop-color="#D9499B"/>
<stop offset="1" stop-color="#0DFF80"/>
</linearGradient>
<linearGradient id="paint6_linear_963_12066" x1="102.669" y1="61.3427" x2="119.132" y2="63.1535" gradientUnits="userSpaceOnUse">
<stop offset="0.320408" stop-color="#D9499B"/>
<stop offset="1" stop-color="#0DFF80"/>
</linearGradient>
<linearGradient id="paint7_linear_963_12066" x1="106.792" y1="52.7822" x2="135.582" y2="58.4755" gradientUnits="userSpaceOnUse">
<stop offset="0.320408" stop-color="#D9499B"/>
<stop offset="1" stop-color="#0DFF80"/>
</linearGradient>
<linearGradient id="paint8_linear_963_12066" x1="128.298" y1="69.6331" x2="146.019" y2="72.5096" gradientUnits="userSpaceOnUse">
<stop offset="0.320408" stop-color="#D9499B"/>
<stop offset="1" stop-color="#0DFF80"/>
</linearGradient>
<linearGradient id="paint9_linear_963_12066" x1="129.73" y1="78.4894" x2="147.33" y2="81.5343" gradientUnits="userSpaceOnUse">
<stop offset="0.320408" stop-color="#D9499B"/>
<stop offset="1" stop-color="#0DFF80"/>
</linearGradient>
<linearGradient id="paint10_linear_963_12066" x1="123.396" y1="83.6326" x2="151.139" y2="87.6125" gradientUnits="userSpaceOnUse">
<stop offset="0.320408" stop-color="#D9499B"/>
<stop offset="1" stop-color="#0DFF80"/>
</linearGradient>
<linearGradient id="paint11_linear_963_12066" x1="130.356" y1="95.8367" x2="145.057" y2="98.3875" gradientUnits="userSpaceOnUse">
<stop offset="0.320408" stop-color="#D9499B"/>
<stop offset="1" stop-color="#0DFF80"/>
</linearGradient>
<linearGradient id="paint12_linear_963_12066" x1="122.984" y1="65.2405" x2="138.316" y2="71.4987" gradientUnits="userSpaceOnUse">
<stop offset="0.320408" stop-color="#D9499B"/>
<stop offset="1" stop-color="#0DFF80"/>
</linearGradient>
<linearGradient id="paint13_linear_963_12066" x1="94.2661" y1="63.6028" x2="101.102" y2="64.8727" gradientUnits="userSpaceOnUse">
<stop offset="0.320408" stop-color="#D9499B"/>
<stop offset="1" stop-color="#0DFF80"/>
</linearGradient>
<linearGradient id="paint14_linear_963_12066" x1="104.333" y1="49.607" x2="109.687" y2="50.1731" gradientUnits="userSpaceOnUse">
<stop offset="0.320408" stop-color="#D9499B"/>
<stop offset="1" stop-color="#0DFF80"/>
</linearGradient>
<linearGradient id="paint15_linear_963_12066" x1="121.359" y1="43.4378" x2="123.468" y2="43.5098" gradientUnits="userSpaceOnUse">
<stop offset="0.320408" stop-color="#D9499B"/>
<stop offset="1" stop-color="#0DFF80"/>
</linearGradient>
<linearGradient id="paint16_linear_963_12066" x1="145.465" y1="63.9544" x2="152.301" y2="65.2242" gradientUnits="userSpaceOnUse">
<stop offset="0.320408" stop-color="#D9499B"/>
<stop offset="1" stop-color="#0DFF80"/>
</linearGradient>
<linearGradient id="paint17_linear_963_12066" x1="137.201" y1="50.2331" x2="142.671" y2="50.8368" gradientUnits="userSpaceOnUse">
<stop offset="0.320408" stop-color="#D9499B"/>
<stop offset="1" stop-color="#0DFF80"/>
</linearGradient>
<linearGradient id="paint18_linear_963_12066" x1="103.495" y1="114.295" x2="108.849" y2="114.862" gradientUnits="userSpaceOnUse">
<stop offset="0.320408" stop-color="#D9499B"/>
<stop offset="1" stop-color="#0DFF80"/>
</linearGradient>
<linearGradient id="paint19_linear_963_12066" x1="120.521" y1="118.364" x2="122.63" y2="118.436" gradientUnits="userSpaceOnUse">
<stop offset="0.320408" stop-color="#D9499B"/>
<stop offset="1" stop-color="#0DFF80"/>
</linearGradient>
<linearGradient id="paint20_linear_963_12066" x1="134.863" y1="114.296" x2="140.216" y2="114.862" gradientUnits="userSpaceOnUse">
<stop offset="0.320408" stop-color="#D9499B"/>
<stop offset="1" stop-color="#0DFF80"/>
</linearGradient>
</defs>
</svg>
