<svg width="44" height="45" viewBox="0 0 44 45" fill="none" xmlns="http://www.w3.org/2000/svg">
<g clip-path="url(#clip0_845_7597)">
<path d="M36.8485 4.48162C36.8485 4.15795 36.7199 3.84754 36.4911 3.61868C36.2622 3.38981 35.9518 3.26123 35.6281 3.26123H8.77947C8.45581 3.26123 8.14539 3.38981 7.91653 3.61868C7.68766 3.84754 7.55908 4.15795 7.55908 4.48162V5.70202H36.8485V4.48162Z" fill="#0062D6"/>
<path d="M39.2638 9.36346C39.2638 9.03979 39.1352 8.72938 38.9063 8.50051C38.6775 8.27164 38.367 8.14307 38.0434 8.14307H6.31317C5.9895 8.14307 5.67909 8.27164 5.45022 8.50051C5.22135 8.72938 5.09277 9.03979 5.09277 9.36346V10.5839H39.2638V9.36346Z" fill="#0062D6"/>
<path d="M39.2636 13.0234H4.79971C4.19121 13.0234 3.60764 13.2652 3.17737 13.6954C2.7471 14.1257 2.50537 14.7093 2.50537 15.3178V37.5777C2.50537 38.1862 2.7471 38.7698 3.17737 39.2001C3.60764 39.6303 4.19121 39.8721 4.79971 39.8721H39.2636C39.8721 39.8721 40.4557 39.6303 40.8859 39.2001C41.3162 38.7698 41.5579 38.1862 41.5579 37.5777V15.3178C41.5579 14.7093 41.3162 14.1257 40.8859 13.6954C40.4557 13.2652 39.8721 13.0234 39.2636 13.0234ZM10.5111 17.2338C11.2353 17.2338 11.9431 17.4485 12.5452 17.8508C13.1473 18.2531 13.6165 18.8249 13.8936 19.4939C14.1707 20.1629 14.2432 20.899 14.102 21.6092C13.9607 22.3194 13.612 22.9718 13.1 23.4838C12.588 23.9958 11.9356 24.3445 11.2254 24.4858C10.5152 24.6271 9.77907 24.5546 9.11007 24.2775C8.44108 24.0003 7.86928 23.5311 7.46699 22.929C7.06469 22.3269 6.84997 21.6191 6.84997 20.895C6.84997 19.924 7.2357 18.9927 7.9223 18.3061C8.60891 17.6195 9.54014 17.2338 10.5111 17.2338ZM36.6764 34.9905H7.38694L16.4911 25.8742C16.6534 25.7132 16.8727 25.6229 17.1013 25.6229C17.3299 25.6229 17.5492 25.7132 17.7115 25.8742L22.2025 30.3652L28.3899 24.007C28.5522 23.846 28.7715 23.7557 29.0001 23.7557C29.2287 23.7557 29.448 23.846 29.6103 24.007L36.6764 31.073V34.9905Z" fill="#0062D6"/>
</g>
<defs>
<clipPath id="clip0_845_7597">
<rect width="43.9341" height="43.9341" fill="white" transform="translate(0.0661621 0.820312)"/>
</clipPath>
</defs>
</svg>
