<svg width="20" height="20" viewBox="0 0 20 20" fill="none" xmlns="http://www.w3.org/2000/svg">
<path d="M17.4999 7.99992C17.4999 7.86731 17.4472 7.74013 17.3535 7.64636C17.2597 7.5526 17.1325 7.49992 16.9999 7.49992C16.8673 7.49992 16.7401 7.5526 16.6463 7.64636C16.5526 7.74013 16.4999 7.86731 16.4999 7.99992H17.4999ZM3.4999 7.99992C3.4999 7.86731 3.44722 7.74013 3.35345 7.64636C3.25968 7.5526 3.13251 7.49992 2.9999 7.49992C2.86729 7.49992 2.74011 7.5526 2.64635 7.64636C2.55258 7.74013 2.4999 7.86731 2.4999 7.99992H3.4999ZM18.6459 10.3539C18.7398 10.4478 18.8671 10.5005 18.9999 10.5005C19.1327 10.5005 19.26 10.4478 19.3539 10.3539C19.4478 10.26 19.5005 10.1327 19.5005 9.99992C19.5005 9.86714 19.4478 9.7398 19.3539 9.64592L18.6459 10.3539ZM9.9999 0.999917L10.3539 0.645917C10.3075 0.599354 10.2523 0.562411 10.1915 0.537205C10.1308 0.511998 10.0657 0.499023 9.9999 0.499023C9.93413 0.499023 9.86901 0.511998 9.80827 0.537205C9.74752 0.562411 9.69234 0.599354 9.6459 0.645917L9.9999 0.999917ZM0.645899 9.64592C0.552012 9.7398 0.499268 9.86714 0.499268 9.99992C0.499268 10.1327 0.552012 10.26 0.645899 10.3539C0.739786 10.4478 0.867123 10.5005 0.999899 10.5005C1.13267 10.5005 1.26001 10.4478 1.3539 10.3539L0.645899 9.64592ZM4.9999 19.4999H14.9999V18.4999H4.9999V19.4999ZM17.4999 16.9999V7.99992H16.4999V16.9999H17.4999ZM3.4999 16.9999V7.99992H2.4999V16.9999H3.4999ZM19.3539 9.64592L10.3539 0.645917L9.6459 1.35392L18.6459 10.3539L19.3539 9.64592ZM9.6459 0.645917L0.645899 9.64592L1.3539 10.3539L10.3539 1.35392L9.6459 0.645917ZM14.9999 19.4999C15.6629 19.4999 16.2988 19.2365 16.7677 18.7677C17.2365 18.2988 17.4999 17.663 17.4999 16.9999H16.4999C16.4999 17.3977 16.3419 17.7793 16.0606 18.0606C15.7793 18.3419 15.3977 18.4999 14.9999 18.4999V19.4999ZM4.9999 18.4999C4.60207 18.4999 4.22054 18.3419 3.93924 18.0606C3.65793 17.7793 3.4999 17.3977 3.4999 16.9999H2.4999C2.4999 17.663 2.76329 18.2988 3.23213 18.7677C3.70097 19.2365 4.33686 19.4999 4.9999 19.4999V18.4999Z" fill="#EFF6FF"/>
</svg>
