<svg width="25" height="25" viewBox="0 0 25 25" fill="none" xmlns="http://www.w3.org/2000/svg">
<path d="M5.40601 23.1437H20.208V19.4432C20.2064 18.0697 19.6601 16.7528 18.6889 15.7816C17.7176 14.8104 16.4008 14.264 15.0273 14.2625H10.5867C9.21317 14.264 7.89636 14.8104 6.92513 15.7816C5.9539 16.7528 5.40757 18.0697 5.40601 19.4432V23.1437ZM7.6263 7.60159C7.6263 8.62624 7.93015 9.62787 8.49941 10.4798C9.06867 11.3318 9.87778 11.9958 10.8244 12.3879C11.7711 12.78 12.8127 12.8826 13.8177 12.6827C14.8227 12.4828 15.7458 11.9894 16.4703 11.2649C17.1948 10.5404 17.6882 9.61725 17.8881 8.61229C18.088 7.60734 17.9854 6.56567 17.5933 5.61903C17.2012 4.67238 16.5372 3.86326 15.6852 3.294C14.8333 2.72474 13.8316 2.4209 12.807 2.4209C11.433 2.4209 10.1153 2.96672 9.14369 3.93829C8.17212 4.90986 7.6263 6.22759 7.6263 7.60159Z" fill="#C8C8C8"/>
</svg>
