<svg width="20" height="21" viewBox="0 0 20 21" fill="none" xmlns="http://www.w3.org/2000/svg">
<path d="M19.697 15.4682C19.677 15.4522 17.557 13.8282 17.594 9.43818C17.614 6.90618 16.782 4.65618 15.247 3.10318C13.872 1.71018 12.01 0.940176 10.005 0.930176H9.99204C7.98804 0.940176 6.12604 1.71018 4.75004 3.10418C3.21604 4.65718 2.38204 6.90618 2.40404 9.43818C2.44104 13.7682 0.384036 15.4052 0.302036 15.4682C0.0420358 15.6612 -0.0639643 15.9982 0.0370357 16.3062C0.139036 16.6142 0.427036 16.8212 0.749036 16.8212H5.66904C5.77104 19.1312 7.66604 20.9812 9.99904 20.9812C12.332 20.9812 14.225 19.1312 14.326 16.8212H19.248C19.57 16.8212 19.858 16.6152 19.958 16.3072C20.061 16.0002 19.955 15.6622 19.695 15.4692L19.697 15.4682ZM10 19.4782C8.49504 19.4782 7.27004 18.3012 7.17204 16.8202H12.828C12.728 18.3002 11.505 19.4802 10 19.4802V19.4782ZM2.38004 15.3202C3.12004 14.1882 3.92804 12.2922 3.90404 9.42418C3.88604 7.26418 4.54804 5.44218 5.81704 4.15718C6.91004 3.05018 8.39704 2.43718 10 2.43018C11.603 2.43818 13.087 3.05018 14.18 4.15818C15.45 5.44318 16.113 7.26418 16.095 9.42518C16.071 12.2932 16.88 14.1902 17.62 15.3212H2.38004V15.3202Z" fill="#D9D9D9"/>
</svg>
