<svg width="3" height="15" viewBox="0 0 3 15" fill="none" xmlns="http://www.w3.org/2000/svg">
<path d="M0.380982 1.99866C0.380982 1.74378 0.456563 1.49462 0.598167 1.2827C0.73977 1.07077 0.941037 0.905596 1.17652 0.808058C1.41199 0.710519 1.67111 0.684999 1.92109 0.734723C2.17107 0.784448 2.4007 0.907184 2.58092 1.08741C2.76115 1.26764 2.88389 1.49726 2.93361 1.74725C2.98334 1.99723 2.95782 2.25634 2.86028 2.49182C2.76274 2.7273 2.59756 2.92856 2.38564 3.07017C2.17371 3.21177 1.92456 3.28735 1.66968 3.28735C1.32789 3.28735 1.00011 3.15158 0.758433 2.9099C0.516755 2.66823 0.380982 2.34044 0.380982 1.99866ZM1.66968 6.18692C1.4148 6.18692 1.16564 6.2625 0.953717 6.4041C0.741792 6.54571 0.576616 6.74697 0.479078 6.98245C0.38154 7.21793 0.356019 7.47704 0.405744 7.72703C0.455469 7.97701 0.578205 8.20663 0.758433 8.38686C0.93866 8.56709 1.16828 8.68982 1.41827 8.73955C1.66825 8.78927 1.92736 8.76375 2.16284 8.66621C2.39832 8.56867 2.59959 8.4035 2.74119 8.19157C2.88279 7.97965 2.95837 7.73049 2.95837 7.47561C2.95837 7.13383 2.8226 6.80605 2.58092 6.56437C2.33925 6.32269 2.01146 6.18692 1.66968 6.18692ZM1.66968 11.6639C1.4148 11.6639 1.16564 11.7395 0.953717 11.8811C0.741792 12.0227 0.576616 12.2239 0.479078 12.4594C0.38154 12.6949 0.356019 12.954 0.405744 13.204C0.455469 13.454 0.578205 13.6836 0.758433 13.8638C0.93866 14.044 1.16828 14.1668 1.41827 14.2165C1.66825 14.2662 1.92736 14.2407 2.16284 14.1432C2.39832 14.0456 2.59959 13.8805 2.74119 13.6685C2.88279 13.4566 2.95837 13.2074 2.95837 12.9526C2.95837 12.6108 2.8226 12.283 2.58092 12.0413C2.33925 11.7996 2.01146 11.6639 1.66968 11.6639Z" fill="#EFF6FF"/>
</svg>
