<svg width="24" height="24" viewBox="0 0 24 24" fill="none" xmlns="http://www.w3.org/2000/svg">
<path d="M12.0002 17C12.5307 17 13.0394 16.7893 13.4145 16.4142C13.7895 16.0391 14.0002 15.5304 14.0002 15C14.0002 14.4696 13.7895 13.9609 13.4145 13.5858C13.0394 13.2107 12.5307 13 12.0002 13C11.4698 13 10.9611 13.2107 10.586 13.5858C10.211 13.9609 10.0002 14.4696 10.0002 15C10.0002 15.5304 10.211 16.0391 10.586 16.4142C10.9611 16.7893 11.4698 17 12.0002 17ZM18.0002 8C18.5307 8 19.0394 8.21071 19.4145 8.58579C19.7895 8.96086 20.0002 9.46957 20.0002 10V20C20.0002 20.5304 19.7895 21.0391 19.4145 21.4142C19.0394 21.7893 18.5307 22 18.0002 22H6.00024C5.46981 22 4.9611 21.7893 4.58603 21.4142C4.21096 21.0391 4.00024 20.5304 4.00024 20V10C4.00024 9.46957 4.21096 8.96086 4.58603 8.58579C4.9611 8.21071 5.46981 8 6.00024 8H7.00024V6C7.00024 4.67392 7.52703 3.40215 8.46471 2.46447C9.40239 1.52678 10.6742 1 12.0002 1C12.6569 1 13.307 1.12933 13.9137 1.3806C14.5203 1.63188 15.0715 2.00017 15.5358 2.46447C16.0001 2.92876 16.3684 3.47995 16.6196 4.08658C16.8709 4.69321 17.0002 5.34339 17.0002 6V8H18.0002ZM12.0002 3C11.2046 3 10.4415 3.31607 9.87892 3.87868C9.31631 4.44129 9.00024 5.20435 9.00024 6V8H15.0002V6C15.0002 5.20435 14.6842 4.44129 14.1216 3.87868C13.559 3.31607 12.7959 3 12.0002 3Z" fill="#C8C8C8"/>
</svg>
