<svg width="40" height="35" viewBox="0 0 40 35" fill="none" xmlns="http://www.w3.org/2000/svg">
<path d="M19.9224 28.2484C22.3101 28.2484 24.34 27.413 26.012 25.7422C27.6828 24.0702 28.5182 22.0403 28.5182 19.6526C28.5182 17.2649 27.6828 15.235 26.012 13.5629C24.34 11.8922 22.3101 11.0568 19.9224 11.0568C17.5346 11.0568 15.5047 11.8922 13.8327 13.5629C12.1619 15.235 11.3265 17.2649 11.3265 19.6526C11.3265 22.0403 12.1619 24.0702 13.8327 25.7422C15.5047 27.413 17.5346 28.2484 19.9224 28.2484ZM19.9224 24.428C18.5852 24.428 17.455 23.9664 16.5318 23.0431C15.6085 22.1199 15.1469 20.9897 15.1469 19.6526C15.1469 18.3155 15.6085 17.1853 16.5318 16.262C17.455 15.3388 18.5852 14.8771 19.9224 14.8771C21.2595 14.8771 22.3897 15.3388 23.3129 16.262C24.2362 17.1853 24.6978 18.3155 24.6978 19.6526C24.6978 20.9897 24.2362 22.1199 23.3129 23.0431C22.3897 23.9664 21.2595 24.428 19.9224 24.428ZM4.64092 34.934C3.59032 34.934 2.69126 34.5603 1.94374 33.8127C1.19495 33.0639 0.820557 32.1643 0.820557 31.1137V8.1915C0.820557 7.1409 1.19495 6.24184 1.94374 5.49433C2.69126 4.74554 3.59032 4.37114 4.64092 4.37114H10.658L14.1918 0.550781H25.6529L29.1867 4.37114H35.2038C36.2544 4.37114 37.1541 4.74554 37.9029 5.49433C38.6504 6.24184 39.0242 7.1409 39.0242 8.1915V31.1137C39.0242 32.1643 38.6504 33.0639 37.9029 33.8127C37.1541 34.5603 36.2544 34.934 35.2038 34.934H4.64092ZM35.2038 31.1137V8.1915H27.4676L23.9815 4.37114H15.8632L12.3771 8.1915H4.64092V31.1137H35.2038Z" fill="#0062D6"/>
</svg>
