<svg width="20" height="20" viewBox="0 0 20 20" fill="none" xmlns="http://www.w3.org/2000/svg">
<circle cx="10" cy="10" r="10" fill="#0062D6"/>
<path d="M10.9524 6.19066C10.9524 5.66468 10.526 5.23828 10 5.23828C9.47402 5.23828 9.04762 5.66468 9.04762 6.19066V9.04781H6.19048C5.66449 9.04781 5.2381 9.4742 5.2381 10.0002C5.2381 10.5262 5.66449 10.9526 6.19048 10.9526H9.04762V13.8097C9.04762 14.3357 9.47402 14.7621 10 14.7621C10.526 14.7621 10.9524 14.3357 10.9524 13.8097V10.9526H13.8095C14.3355 10.9526 14.7619 10.5262 14.7619 10.0002C14.7619 9.4742 14.3355 9.0478 13.8095 9.0478H10.9524V6.19066Z" fill="white"/>
</svg>
