<svg width="10" height="14" viewBox="0 0 10 14" fill="none" xmlns="http://www.w3.org/2000/svg">
<path d="M8.78457 0.706543H1.42067C1.17654 0.706543 0.942413 0.803523 0.769788 0.976148C0.597163 1.14877 0.500183 1.3829 0.500183 1.62703V13.1989C0.500159 13.2693 0.518992 13.3385 0.554724 13.3991C0.590456 13.4598 0.641786 13.5099 0.703381 13.544C0.764977 13.5782 0.834593 13.5952 0.905 13.5934C0.975406 13.5915 1.04404 13.5709 1.10376 13.5335L5.10196 11.0351L9.10148 13.5335C9.16121 13.5709 9.22984 13.5915 9.30024 13.5934C9.37065 13.5952 9.44026 13.5782 9.50186 13.544C9.56345 13.5099 9.61478 13.4598 9.65052 13.3991C9.68625 13.3385 9.70508 13.2693 9.70506 13.1989V1.62703C9.70506 1.3829 9.60808 1.14877 9.43545 0.976148C9.26283 0.803523 9.0287 0.706543 8.78457 0.706543ZM1.42067 1.49553H8.78457C8.81945 1.49553 8.85289 1.50939 8.87755 1.53405C8.90221 1.55871 8.91607 1.59215 8.91607 1.62703V9.33151L5.31105 7.07829C5.24835 7.0391 5.1759 7.01832 5.10196 7.01832C5.02803 7.01832 4.95558 7.0391 4.89288 7.07829L1.28917 9.33085V1.62703C1.28917 1.59215 1.30303 1.55871 1.32769 1.53405C1.35235 1.50939 1.3858 1.49553 1.42067 1.49553ZM5.31105 10.2342C5.24835 10.1951 5.1759 10.1743 5.10196 10.1743C5.02803 10.1743 4.95558 10.1951 4.89288 10.2342L1.28917 12.4868V10.2619L5.10262 7.87846L8.91607 10.2619V12.4868L5.31105 10.2342Z" fill="#9F9F9F"/>
</svg>
