<svg width="20" height="20" viewBox="0 0 20 20" fill="none" xmlns="http://www.w3.org/2000/svg">
<path d="M10 6.8418C8.25834 6.8418 6.84167 8.25846 6.84167 10.0001C6.84167 11.7418 8.25834 13.1585 10 13.1585C11.7417 13.1585 13.1583 11.7418 13.1583 10.0001C13.1583 8.25846 11.7417 6.8418 10 6.8418ZM10 11.9085C8.94834 11.9085 8.09167 11.0535 8.09167 10.0001C8.09167 8.9468 8.95001 8.0918 10 8.0918C11.05 8.0918 11.9083 8.9468 11.9083 10.0001C11.9083 11.0535 11.0517 11.9085 10 11.9085Z" fill="#EFF3F4"/>
<path d="M10.3 18.6462H9.69837C8.71254 18.6462 7.90337 17.9062 7.81337 16.9262L7.80171 16.8037C7.78087 16.5645 7.62921 16.3595 7.40837 16.267C7.17004 16.167 6.92337 16.2128 6.74337 16.3628L6.64671 16.4437C5.92337 17.0478 4.76921 16.9962 4.09671 16.327L3.67171 15.902C2.97504 15.202 2.92504 14.107 3.55504 13.352L3.63671 13.2537C3.79171 13.0687 3.82837 12.8178 3.73837 12.5978C3.64671 12.3712 3.44004 12.2195 3.20004 12.1978L3.07504 12.1862C2.09171 12.097 1.35254 11.2862 1.35254 10.3012V9.69949C1.35254 8.71366 2.09254 7.90449 3.07254 7.81449L3.20254 7.80283C3.44004 7.78199 3.64421 7.63033 3.73754 7.40866C3.82921 7.18366 3.79171 6.93116 3.63754 6.74616L3.55921 6.64949C2.92837 5.89283 2.97754 4.79699 3.67337 4.09949L4.10004 3.67283C4.77004 3.00283 5.92337 2.95199 6.65004 3.55616L6.74671 3.63783C6.92837 3.79116 7.18671 3.82949 7.40504 3.73949C7.63004 3.64616 7.78171 3.44116 7.80254 3.20366L7.81421 3.07616C7.90337 2.09283 8.71421 1.35449 9.69921 1.35449H10.3009C11.2867 1.35449 12.0959 2.09449 12.1859 3.07449L12.1975 3.20449C12.2184 3.44199 12.3692 3.64616 12.5909 3.73783C12.8217 3.83533 13.0742 3.78949 13.2525 3.64033L13.3525 3.55533C14.075 2.95283 15.2309 3.00366 15.9025 3.67199L16.3275 4.09866C17.0242 4.79699 17.0742 5.89283 16.4442 6.64866L16.3609 6.74699C16.2042 6.93033 16.1659 7.18199 16.2584 7.40366C16.3517 7.62866 16.5584 7.77866 16.7967 7.80199L16.9234 7.81366C17.9067 7.90283 18.6459 8.71366 18.6459 9.69866V10.3012C18.6459 11.287 17.9059 12.0962 16.9259 12.1862L16.7967 12.1978C16.56 12.2178 16.355 12.3687 16.2634 12.5895C16.1692 12.8162 16.2075 13.0678 16.3609 13.252L16.4442 13.352C17.0742 14.1062 17.0242 15.202 16.3275 15.902L15.9025 16.327C15.23 16.997 14.0775 17.047 13.3525 16.4437L13.2567 16.3637C13.0759 16.2112 12.815 16.172 12.5984 16.262C12.3709 16.357 12.2192 16.562 12.1984 16.8003L12.1867 16.9253C12.0975 17.9028 11.2867 18.642 10.3017 18.642L10.3 18.6462ZM7.15587 14.9628C7.40587 14.9628 7.65004 15.0128 7.88087 15.1087C8.53921 15.382 8.98421 15.987 9.04754 16.6887L9.05921 16.8112C9.09004 17.1445 9.36504 17.3945 9.70087 17.3945H10.3025C10.6359 17.3945 10.9109 17.1445 10.9425 16.8112L10.9542 16.6878C11.0175 15.9862 11.4625 15.382 12.1142 15.1112C12.775 14.8362 13.5275 14.9595 14.0584 15.4028L14.1525 15.4812C14.3009 15.6045 14.4575 15.6312 14.5634 15.6312C14.735 15.6312 14.8967 15.5645 15.0184 15.442L15.4434 15.017C15.68 14.7803 15.6975 14.4087 15.4834 14.152L15.4 14.052C14.9484 13.5103 14.8359 12.7687 15.1067 12.1162C15.3784 11.4578 15.9834 11.0162 16.685 10.952L16.8142 10.9403C17.145 10.9095 17.3975 10.6345 17.3975 10.2987V9.69699C17.3975 9.36366 17.145 9.08866 16.8125 9.05699L16.6859 9.04533C15.9809 8.98033 15.3775 8.53699 15.1067 7.88449C14.835 7.22783 14.9484 6.48616 15.4009 5.94533L15.4842 5.84699C15.6984 5.58866 15.6809 5.21699 15.4442 4.98033L15.0192 4.55533C14.8975 4.43283 14.7359 4.36616 14.5642 4.36616C14.4584 4.36616 14.3017 4.39283 14.1542 4.51616L14.0542 4.59949C13.5259 5.03949 12.7625 5.15783 12.1192 4.89449C11.4625 4.62199 11.0192 4.01783 10.955 3.31449L10.9434 3.18533C10.9142 2.85449 10.6392 2.60199 10.3042 2.60199H9.70171C9.36837 2.60199 9.09337 2.85449 9.06171 3.18699L9.05004 3.31366C8.98671 4.01616 8.54337 4.62033 7.89171 4.89116C7.23587 5.16283 6.48087 5.04366 5.95004 4.59949L5.85171 4.51949C5.70171 4.39449 5.54504 4.36949 5.43921 4.36949C5.26754 4.36949 5.10587 4.43616 4.98421 4.55783L4.55754 4.98283C4.32254 5.21949 4.30504 5.59116 4.51921 5.84783L4.60254 5.94616C5.05254 6.49033 5.16671 7.23283 4.89587 7.88366C4.62337 8.54033 4.01921 8.98366 3.31671 9.04783L3.18671 9.05949C2.85587 9.09033 2.60337 9.36533 2.60337 9.70116V10.3028C2.60337 10.6362 2.85587 10.9112 3.18837 10.9428L3.31337 10.9545C4.02004 11.0195 4.62421 11.4645 4.89421 12.1178C5.16504 12.7728 5.05254 13.5137 4.60004 14.0553L4.52004 14.1512C4.30337 14.4095 4.32171 14.7812 4.55837 15.0178L4.98337 15.4428C5.10504 15.5653 5.26671 15.632 5.43837 15.632C5.54421 15.632 5.70087 15.607 5.84837 15.482L5.94504 15.402C6.28337 15.122 6.71421 14.9653 7.15587 14.9653V14.9628Z" fill="#EFF3F4"/>
</svg>
