<svg width="13" height="16" viewBox="0 0 13 16" fill="none" xmlns="http://www.w3.org/2000/svg">
<path d="M4.57486 8.1505C4.57486 8.6513 4.37591 9.13159 4.02179 9.48572C3.66767 9.83984 3.18737 10.0388 2.68657 10.0388C2.18576 10.0388 1.70547 9.83984 1.35135 9.48572C0.997223 9.13159 0.798279 8.6513 0.798279 8.1505C0.798279 7.64969 0.997223 7.1694 1.35135 6.81527C1.70547 6.46115 2.18576 6.26221 2.68657 6.26221C3.18737 6.26221 3.66767 6.46115 4.02179 6.81527C4.37591 7.1694 4.57486 7.64969 4.57486 8.1505Z" stroke="#9F9F9F" stroke-width="1.13297"/>
<path d="M8.35147 3.99561L4.57489 6.63921M8.35147 12.3041L4.57489 9.66047" stroke="#9F9F9F" stroke-width="1.13297" stroke-linecap="round"/>
<path d="M12.128 13.0594C12.128 13.5602 11.9291 14.0405 11.575 14.3947C11.2208 14.7488 10.7405 14.9477 10.2397 14.9477C9.73892 14.9477 9.25863 14.7488 8.90451 14.3947C8.55038 14.0405 8.35144 13.5602 8.35144 13.0594C8.35144 12.5586 8.55038 12.0783 8.90451 11.7242C9.25863 11.3701 9.73892 11.1712 10.2397 11.1712C10.7405 11.1712 11.2208 11.3701 11.575 11.7242C11.9291 12.0783 12.128 12.5586 12.128 13.0594ZM12.128 3.24034C12.128 3.74114 11.9291 4.22144 11.575 4.57556C11.2208 4.92968 10.7405 5.12863 10.2397 5.12863C9.73892 5.12863 9.25863 4.92968 8.90451 4.57556C8.55038 4.22144 8.35144 3.74114 8.35144 3.24034C8.35144 2.73953 8.55038 2.25924 8.90451 1.90512C9.25863 1.55099 9.73892 1.35205 10.2397 1.35205C10.7405 1.35205 11.2208 1.55099 11.575 1.90512C11.9291 2.25924 12.128 2.73953 12.128 3.24034Z" stroke="#9F9F9F" stroke-width="1.13297"/>
</svg>
