<svg width="59" height="75" viewBox="0 0 59 75" fill="none" xmlns="http://www.w3.org/2000/svg">
<path fill-rule="evenodd" clip-rule="evenodd" d="M41.6331 20.6927C41.5361 20.6927 41.4377 20.6707 41.3452 20.6241C41.0285 20.4649 40.901 20.0791 41.0601 19.7623C41.3565 19.1726 41.7791 18.0236 41.2781 16.9531C40.8319 15.9996 39.7458 15.3154 38.0499 14.9192C37.5208 14.7956 37.0129 14.4474 36.4753 14.0788C35.4248 13.3584 34.3382 12.6137 32.8769 13.1613C32.5432 13.2863 32.1942 13.4067 31.8568 13.5232C31.6913 13.5803 31.5247 13.6377 31.3575 13.6966C31.0235 13.8141 30.6568 13.6384 30.5391 13.304C30.4215 12.9695 30.5972 12.6031 30.9317 12.4855C31.1012 12.4259 31.2702 12.3675 31.438 12.3096C31.7829 12.1906 32.1085 12.0783 32.4265 11.9591C34.5134 11.1771 36.0671 12.2423 37.2013 13.0199C37.6366 13.3184 38.0478 13.6004 38.342 13.6691C40.4404 14.1593 41.8194 15.0811 42.4408 16.4089C43.1716 17.9703 42.6081 19.5414 42.2071 20.339C42.0943 20.5632 41.8681 20.6927 41.6331 20.6927Z" fill="url(#paint0_linear_1123_5153)"/>
<path fill-rule="evenodd" clip-rule="evenodd" d="M20.6733 47.4409C18.4013 47.4409 15.927 46.5251 13.8685 44.7224C9.99551 41.3307 9.03976 36.0645 11.7381 32.9831C12.5077 32.1043 13.4387 31.5078 14.5843 31.1597C14.9236 31.0567 15.282 31.2481 15.3851 31.5873C15.4882 31.9266 15.2967 32.285 14.9575 32.3881C14.0481 32.6644 13.3109 33.1357 12.7039 33.8288C10.4719 36.3777 11.3737 40.8313 14.7143 43.7566C18.0548 46.6822 22.5885 46.9883 24.8205 44.4395C25.1624 44.0489 25.4379 43.6046 25.6391 43.1191C25.7748 42.7917 26.1502 42.6361 26.4778 42.7719C26.8053 42.9076 26.9607 43.2831 26.8251 43.6106C26.5702 44.2257 26.2207 44.7891 25.7864 45.2852C24.5221 46.7288 22.6762 47.4409 20.6733 47.4409Z" fill="url(#paint1_linear_1123_5153)"/>
<path fill-rule="evenodd" clip-rule="evenodd" d="M27.3243 43.9137C26.7003 43.9137 26.0675 43.8614 25.4358 43.7554C23.2817 43.3941 21.3936 42.4393 20.1193 41.0668C19.878 40.8071 19.8931 40.4009 20.1529 40.1598C20.4125 39.9186 20.8188 39.9336 21.06 40.1934C23.2707 42.5741 27.658 43.3486 30.8397 41.9202C31.1631 41.7749 31.543 41.9196 31.6881 42.2428C31.8334 42.5663 31.6889 42.9461 31.3655 43.0913C30.1554 43.6346 28.7642 43.9137 27.3243 43.9137Z" fill="url(#paint2_linear_1123_5153)"/>
<path fill-rule="evenodd" clip-rule="evenodd" d="M42.4938 24.4005C42.4273 24.4005 42.3598 24.3901 42.2932 24.3681C41.9565 24.2573 41.7733 23.8946 41.884 23.5579C42.1628 22.7104 41.8834 21.6798 41.1174 20.7304C40.2911 19.706 39.0612 18.9359 37.9845 18.7684C37.6343 18.7139 37.3945 18.3857 37.4489 18.0354C37.5034 17.6852 37.8316 17.4456 38.1819 17.4998C39.8503 17.7594 41.3084 18.9224 42.1166 19.9244C43.1612 21.2193 43.5209 22.6899 43.1034 23.9591C43.0147 24.2291 42.7635 24.4005 42.4938 24.4005Z" fill="url(#paint3_linear_1123_5153)"/>
<path fill-rule="evenodd" clip-rule="evenodd" d="M19.2803 35.9589C17.9103 35.9589 16.3837 35.4001 15.2804 33.9806C13.4813 31.6658 13.3501 28.8772 14.9295 26.521C15.1268 26.2264 15.5256 26.1477 15.82 26.3452C16.1145 26.5426 16.1932 26.9413 15.9958 27.2357C14.7397 29.1096 14.8512 31.3365 16.294 33.1927C17.4243 34.6469 19.2528 34.934 20.475 34.4666C20.9455 34.2865 22.0289 33.7104 21.9263 32.2548C21.9014 31.9012 22.1679 31.5944 22.5216 31.5694C22.8738 31.5438 23.1821 31.811 23.2069 32.1646C23.3199 33.7688 22.4701 35.0776 20.9339 35.6655C20.4445 35.8528 19.8772 35.9589 19.2803 35.9589Z" fill="url(#paint4_linear_1123_5153)"/>
<path fill-rule="evenodd" clip-rule="evenodd" d="M21.1389 32.9588C20.0242 32.9588 18.7944 32.5728 17.6459 31.6158C15.99 30.2359 14.9922 28.2523 14.9767 26.3097C14.9633 24.6257 15.6853 23.1081 17.0646 21.9209C17.3334 21.6898 17.7385 21.7201 17.9698 21.9888C18.2011 22.2575 18.1707 22.6628 17.9021 22.894C16.8178 23.8272 16.2501 25.0048 16.2604 26.2996C16.2728 27.8461 17.1185 29.5053 18.4677 30.6297C19.591 31.5658 21.4538 32.1353 22.8889 31.1739C23.7768 30.5791 24.0893 29.6122 23.7465 28.5211C23.6401 28.1829 23.8282 27.8226 24.1663 27.7164C24.5044 27.6101 24.8648 27.7981 24.9712 28.1362C25.4815 29.7607 24.9576 31.3332 23.6034 32.2404C22.9444 32.6818 22.083 32.9588 21.1389 32.9588Z" fill="url(#paint5_linear_1123_5153)"/>
<path fill-rule="evenodd" clip-rule="evenodd" d="M22.5027 29.1811C21.8687 29.1811 21.2568 29.055 20.7278 28.7905C18.0924 27.4728 17.0646 24.9611 16.9815 23.0498C16.9262 21.7783 17.6535 19.2193 19.8406 17.7656C20.1358 17.5693 20.5342 17.6497 20.7305 17.9448C20.9267 18.2401 20.8465 18.6385 20.5513 18.8347C18.9149 19.9224 18.219 21.9596 18.264 22.994C18.2872 23.5283 18.5429 26.2627 21.3018 27.6422C22.4103 28.1965 24.2102 27.8096 25.2324 26.7975C25.8689 26.1673 26.4518 25.0556 25.6143 23.3381C25.4589 23.0194 25.5913 22.6352 25.9099 22.4798C26.2285 22.3244 26.6127 22.4567 26.7682 22.7754C27.6686 24.6217 27.438 26.4203 26.1356 27.7098C25.18 28.656 23.7958 29.1811 22.5027 29.1811Z" fill="url(#paint6_linear_1123_5153)"/>
<path fill-rule="evenodd" clip-rule="evenodd" d="M25.5425 23.5484C24.0143 23.5484 22.5287 23.0388 21.3265 22.062C20.2502 21.1875 19.3498 19.1581 19.801 17.1193C20.3802 14.5022 22.8282 13.5166 24.2358 13.1621C24.8187 13.0153 25.3448 12.8347 25.8535 12.66C27.4431 12.1142 28.9446 11.5987 31.0522 12.6469C31.8649 13.0511 32.7363 13.2594 33.5791 13.4607C35.6199 13.9482 37.7303 14.4525 38.2243 17.7259C38.2771 18.0764 38.0358 18.4034 37.6853 18.4563C37.3355 18.5089 37.0077 18.268 36.9548 17.9174C36.5901 15.4999 35.2736 15.1854 33.2808 14.7093C32.4105 14.5014 31.4243 14.2659 30.4806 13.7964C28.8534 12.9871 27.7699 13.3592 26.2703 13.8741C25.7365 14.0574 25.1846 14.247 24.5493 14.407C22.5865 14.9013 21.3779 15.9352 21.0545 17.3967C20.7312 18.8574 21.3642 20.4385 22.1361 21.0656C23.5718 22.2322 25.515 22.5722 27.3345 21.9752C29.2628 21.3424 30.6876 19.7532 31.2436 17.615C31.3327 17.272 31.6832 17.0664 32.0263 17.1553C32.3693 17.2444 32.5751 17.5949 32.486 17.938C31.8181 20.5072 30.0863 22.4233 27.7347 23.1949C27.0119 23.4321 26.2722 23.5484 25.5425 23.5484Z" fill="url(#paint7_linear_1123_5153)"/>
<path fill-rule="evenodd" clip-rule="evenodd" d="M44.1154 30.5656C44.0538 30.5656 43.9911 30.5566 43.9292 30.5378C43.5899 30.4352 43.398 30.0769 43.5008 29.7376C44.0829 27.815 43.7377 26.031 42.5538 24.843C40.9371 23.2207 38.0425 22.8784 34.6127 23.9039C34.2727 24.0055 33.9155 23.8125 33.8138 23.4728C33.7123 23.1332 33.9053 22.7755 34.245 22.674C38.1421 21.5088 41.5021 21.969 43.4631 23.9368C44.9914 25.4703 45.4529 27.7202 44.7294 30.1095C44.6455 30.3868 44.3908 30.5656 44.1154 30.5656Z" fill="url(#paint8_linear_1123_5153)"/>
<path fill-rule="evenodd" clip-rule="evenodd" d="M45.1567 35.6254C45.1133 35.6254 45.0695 35.621 45.0253 35.612C44.6782 35.5397 44.4555 35.1998 44.5276 34.8527C44.9572 32.7872 44.4729 31.0057 43.1986 29.9653C41.5261 28.5994 38.7646 28.5915 35.6221 29.9435C35.2969 30.0835 34.9191 29.9333 34.7789 29.6076C34.6388 29.2819 34.7891 28.9044 35.1148 28.7643C38.7123 27.2166 41.9545 27.2918 44.0106 28.9709C45.6684 30.3247 46.315 32.5638 45.7845 35.1142C45.7214 35.4172 45.4544 35.6254 45.1567 35.6254Z" fill="url(#paint9_linear_1123_5153)"/>
<path fill-rule="evenodd" clip-rule="evenodd" d="M41.7522 34.7837C40.1316 34.7837 38.3165 35.267 36.6032 36.2562C34.7055 37.3517 33.2266 38.8943 32.4389 40.5998C31.6861 42.2297 31.6636 43.8066 32.3758 45.0401C33.8904 47.6633 38.251 47.9913 42.0966 45.7711C45.942 43.5509 47.8384 39.6105 46.3239 36.9871C45.4842 35.5327 43.7689 34.7837 41.7522 34.7837ZM36.9679 48.5214C36.6878 48.5214 36.4104 48.5091 36.1363 48.4841C33.9211 48.2822 32.1908 47.287 31.264 45.682C30.3374 44.077 30.3408 42.0809 31.2736 40.0615C32.1715 38.1175 33.8362 36.3713 35.9613 35.1444C38.0863 33.9176 40.431 33.3487 42.5635 33.5433C44.7787 33.7452 46.509 34.7402 47.4357 36.3453C48.3624 37.9503 48.359 39.9464 47.4262 41.9658C46.5283 43.9097 44.8636 45.656 42.7385 46.8829C40.8866 47.9521 38.8676 48.5214 36.9679 48.5214Z" fill="url(#paint10_linear_1123_5153)"/>
<path fill-rule="evenodd" clip-rule="evenodd" d="M35.951 45.2034C35.7291 45.2034 35.5134 45.0883 35.3945 44.8824C34.9554 44.1219 35.0805 43.137 35.7467 42.1092C36.3292 41.2104 37.2812 40.3511 38.427 39.6895C41.0055 38.2009 43.5905 38.1881 44.4404 39.6597C44.6176 39.9667 44.5124 40.3593 44.2055 40.5365C43.8984 40.7136 43.5059 40.6087 43.3286 40.3016C42.9742 39.6879 41.1822 39.5811 39.0689 40.8013C38.1095 41.3552 37.2913 42.0864 36.824 42.8074C36.4447 43.3925 36.3259 43.9283 36.5063 44.2405C36.6835 44.5475 36.5783 44.9401 36.2713 45.1174C36.1702 45.1756 36.0598 45.2034 35.951 45.2034Z" fill="url(#paint11_linear_1123_5153)"/>
<path fill-rule="evenodd" clip-rule="evenodd" d="M30.9437 20.6703C30.7746 20.6703 30.6058 20.6039 30.4797 20.4721C30.2348 20.216 30.2438 19.8097 30.4999 19.5646C31.7399 18.3786 33.6427 17.5611 35.5899 17.3778C37.747 17.1744 39.7273 17.7349 41.1657 18.9553C41.4359 19.1847 41.4691 19.5898 41.2398 19.8601C41.0104 20.1302 40.6054 20.1636 40.335 19.9342C39.1627 18.9395 37.5197 18.4856 35.7102 18.6558C34.0412 18.813 32.4253 19.4995 31.3873 20.4923C31.2629 20.6112 31.1032 20.6703 30.9437 20.6703Z" fill="url(#paint12_linear_1123_5153)"/>
<path fill-rule="evenodd" clip-rule="evenodd" d="M12.1096 16.75L15.2105 18.3621L12.1096 16.75Z" fill="#E6E6E6"/>
<path fill-rule="evenodd" clip-rule="evenodd" d="M15.2097 19.0046C15.11 19.0046 15.0088 18.9813 14.9141 18.932L11.8132 17.3199C11.4987 17.1563 11.3762 16.7688 11.5398 16.4543C11.7033 16.1398 12.0908 16.0174 12.4054 16.1808L15.5063 17.7931C15.8209 17.9565 15.9433 18.3441 15.7798 18.6587C15.6655 18.8785 15.4415 19.0046 15.2097 19.0046Z" fill="url(#paint13_linear_1123_5153)"/>
<path fill-rule="evenodd" clip-rule="evenodd" d="M18.7114 7.92188L20.7841 10.532L18.7114 7.92188Z" fill="#E6E6E6"/>
<path fill-rule="evenodd" clip-rule="evenodd" d="M20.7847 11.1743C20.5956 11.1743 20.4084 11.0911 20.2817 10.9316L18.2089 8.32141C17.9885 8.04375 18.0348 7.64001 18.3124 7.41957C18.59 7.19904 18.9937 7.24535 19.2142 7.5231L21.287 10.1332C21.5075 10.4108 21.4612 10.8146 21.1835 11.035C21.0655 11.1287 20.9246 11.1743 20.7847 11.1743Z" fill="url(#paint14_linear_1123_5153)"/>
<path fill-rule="evenodd" clip-rule="evenodd" d="M29.9038 4.16016L29.8787 7.57972L29.9038 4.16016Z" fill="#E6E6E6"/>
<path fill-rule="evenodd" clip-rule="evenodd" d="M29.8783 8.22187H29.8735C29.519 8.21921 29.2338 7.92972 29.2363 7.57522L29.2615 4.15576C29.2641 3.80281 29.551 3.51855 29.9033 3.51855H29.908C30.2625 3.52121 30.5478 3.8107 30.5451 4.1652L30.52 7.58467C30.5174 7.93761 30.2306 8.22187 29.8783 8.22187Z" fill="url(#paint15_linear_1123_5153)"/>
<path fill-rule="evenodd" clip-rule="evenodd" d="M48.7885 16.9805L45.6876 18.5927L48.7885 16.9805Z" fill="#E6E6E6"/>
<path fill-rule="evenodd" clip-rule="evenodd" d="M45.6885 19.235C45.4566 19.235 45.2327 19.109 45.1184 18.8892C44.9549 18.5745 45.0773 18.187 45.3919 18.0235L48.4928 16.4113C48.8072 16.2479 49.1948 16.3702 49.3583 16.6848C49.5219 16.9993 49.3995 17.3868 49.0849 17.5504L45.984 19.1625C45.8894 19.2117 45.7882 19.235 45.6885 19.235Z" fill="url(#paint16_linear_1123_5153)"/>
<path fill-rule="evenodd" clip-rule="evenodd" d="M42.4169 8.30566L40.2673 10.8391L42.4169 8.30566Z" fill="#E6E6E6"/>
<path fill-rule="evenodd" clip-rule="evenodd" d="M40.267 11.4812C40.1202 11.4812 39.9728 11.4312 39.8522 11.3288C39.5818 11.0994 39.5486 10.6944 39.7779 10.4241L41.9274 7.89068C42.1567 7.62045 42.5618 7.58707 42.8322 7.81659C43.1025 8.04592 43.1357 8.45094 42.9063 8.72127L40.7569 11.2547C40.6299 11.4043 40.449 11.4812 40.267 11.4812Z" fill="url(#paint17_linear_1123_5153)"/>
<path fill-rule="evenodd" clip-rule="evenodd" d="M18.1616 52.9578L20.2343 50.3477L18.1616 52.9578Z" fill="#E6E6E6"/>
<path fill-rule="evenodd" clip-rule="evenodd" d="M18.1613 53.6C18.0214 53.6 17.8805 53.5546 17.7625 53.4608C17.4849 53.2403 17.4386 52.8366 17.6589 52.5589L19.7318 49.9489C19.9522 49.6711 20.356 49.6248 20.6336 49.8454C20.9112 50.0659 20.9576 50.4696 20.7371 50.7473L18.6643 53.3574C18.5376 53.517 18.3503 53.6 18.1613 53.6Z" fill="url(#paint18_linear_1123_5153)"/>
<path fill-rule="evenodd" clip-rule="evenodd" d="M29.3534 56.7194L29.3282 53.2998L29.3534 56.7194Z" fill="#E6E6E6"/>
<path fill-rule="evenodd" clip-rule="evenodd" d="M29.3533 57.3615C29.0009 57.3615 28.7141 57.0773 28.7115 56.7244L28.6864 53.3048C28.6838 52.9503 28.969 52.6608 29.3235 52.6582H29.3284C29.6806 52.6582 29.9675 52.9425 29.9702 53.2953L29.9953 56.7149C29.9979 57.0694 29.7126 57.359 29.3581 57.3615H29.3533Z" fill="url(#paint19_linear_1123_5153)"/>
<path fill-rule="evenodd" clip-rule="evenodd" d="M40.807 52.9578L38.7343 50.3477L40.807 52.9578Z" fill="#E6E6E6"/>
<path fill-rule="evenodd" clip-rule="evenodd" d="M40.8075 53.6C40.6183 53.6 40.4312 53.5169 40.3045 53.3573L38.2316 50.7472C38.0112 50.4695 38.0575 50.0658 38.3351 49.8453C38.6128 49.6247 39.0167 49.6713 39.2369 49.9488L41.3097 52.5588C41.5302 52.8365 41.4839 53.2402 41.2063 53.4607C41.0883 53.5545 40.9473 53.6 40.8075 53.6Z" fill="url(#paint20_linear_1123_5153)"/>
<defs>
<linearGradient id="paint0_linear_1123_5153" x1="30.5026" y1="8.51898" x2="43.1499" y2="10.6366" gradientUnits="userSpaceOnUse">
<stop offset="0.320408" stop-color="#D9499B"/>
<stop offset="1" stop-color="#0DFF80"/>
</linearGradient>
<linearGradient id="paint1_linear_1123_5153" x1="10.2043" y1="25.3982" x2="27.5633" y2="27.575" gradientUnits="userSpaceOnUse">
<stop offset="0.320408" stop-color="#D9499B"/>
<stop offset="1" stop-color="#0DFF80"/>
</linearGradient>
<linearGradient id="paint2_linear_1123_5153" x1="19.9478" y1="38.6082" x2="30.9323" y2="42.6583" gradientUnits="userSpaceOnUse">
<stop offset="0.320408" stop-color="#D9499B"/>
<stop offset="1" stop-color="#0DFF80"/>
</linearGradient>
<linearGradient id="paint3_linear_1123_5153" x1="37.4412" y1="15.0635" x2="43.5446" y2="15.6957" gradientUnits="userSpaceOnUse">
<stop offset="0.320408" stop-color="#D9499B"/>
<stop offset="1" stop-color="#0DFF80"/>
</linearGradient>
<linearGradient id="paint4_linear_1123_5153" x1="13.8315" y1="22.8183" x2="23.6213" y2="23.9777" gradientUnits="userSpaceOnUse">
<stop offset="0.320408" stop-color="#D9499B"/>
<stop offset="1" stop-color="#0DFF80"/>
</linearGradient>
<linearGradient id="paint5_linear_1123_5153" x1="14.9766" y1="17.8305" x2="25.6185" y2="19.0188" gradientUnits="userSpaceOnUse">
<stop offset="0.320408" stop-color="#D9499B"/>
<stop offset="1" stop-color="#0DFF80"/>
</linearGradient>
<linearGradient id="paint6_linear_1123_5153" x1="16.9786" y1="13.6072" x2="27.7753" y2="14.7948" gradientUnits="userSpaceOnUse">
<stop offset="0.320408" stop-color="#D9499B"/>
<stop offset="1" stop-color="#0DFF80"/>
</linearGradient>
<linearGradient id="paint7_linear_1123_5153" x1="19.6819" y1="7.99412" x2="38.5638" y2="11.7281" gradientUnits="userSpaceOnUse">
<stop offset="0.320408" stop-color="#D9499B"/>
<stop offset="1" stop-color="#0DFF80"/>
</linearGradient>
<linearGradient id="paint8_linear_1123_5153" x1="33.7867" y1="19.0454" x2="45.4088" y2="20.932" gradientUnits="userSpaceOnUse">
<stop offset="0.320408" stop-color="#D9499B"/>
<stop offset="1" stop-color="#0DFF80"/>
</linearGradient>
<linearGradient id="paint9_linear_1123_5153" x1="34.7264" y1="24.8533" x2="46.269" y2="26.8502" gradientUnits="userSpaceOnUse">
<stop offset="0.320408" stop-color="#D9499B"/>
<stop offset="1" stop-color="#0DFF80"/>
</linearGradient>
<linearGradient id="paint10_linear_1123_5153" x1="30.5715" y1="28.227" x2="48.7672" y2="30.8371" gradientUnits="userSpaceOnUse">
<stop offset="0.320408" stop-color="#D9499B"/>
<stop offset="1" stop-color="#0DFF80"/>
</linearGradient>
<linearGradient id="paint11_linear_1123_5153" x1="35.1368" y1="36.2304" x2="44.7781" y2="37.9034" gradientUnits="userSpaceOnUse">
<stop offset="0.320408" stop-color="#D9499B"/>
<stop offset="1" stop-color="#0DFF80"/>
</linearGradient>
<linearGradient id="paint12_linear_1123_5153" x1="30.3018" y1="16.165" x2="40.357" y2="20.2694" gradientUnits="userSpaceOnUse">
<stop offset="0.320408" stop-color="#D9499B"/>
<stop offset="1" stop-color="#0DFF80"/>
</linearGradient>
<linearGradient id="paint13_linear_1123_5153" x1="11.4673" y1="15.0902" x2="15.9507" y2="15.923" gradientUnits="userSpaceOnUse">
<stop offset="0.320408" stop-color="#D9499B"/>
<stop offset="1" stop-color="#0DFF80"/>
</linearGradient>
<linearGradient id="paint14_linear_1123_5153" x1="18.0697" y1="5.91128" x2="21.5807" y2="6.28259" gradientUnits="userSpaceOnUse">
<stop offset="0.320408" stop-color="#D9499B"/>
<stop offset="1" stop-color="#0DFF80"/>
</linearGradient>
<linearGradient id="paint15_linear_1123_5153" x1="29.2363" y1="1.86505" x2="30.6191" y2="1.91225" gradientUnits="userSpaceOnUse">
<stop offset="0.320408" stop-color="#D9499B"/>
<stop offset="1" stop-color="#0DFF80"/>
</linearGradient>
<linearGradient id="paint16_linear_1123_5153" x1="45.0459" y1="15.3207" x2="49.5293" y2="16.1535" gradientUnits="userSpaceOnUse">
<stop offset="0.320408" stop-color="#D9499B"/>
<stop offset="1" stop-color="#0DFF80"/>
</linearGradient>
<linearGradient id="paint17_linear_1123_5153" x1="39.6255" y1="6.32208" x2="43.2133" y2="6.71799" gradientUnits="userSpaceOnUse">
<stop offset="0.320408" stop-color="#D9499B"/>
<stop offset="1" stop-color="#0DFF80"/>
</linearGradient>
<linearGradient id="paint18_linear_1123_5153" x1="17.5198" y1="48.3371" x2="21.0308" y2="48.7084" gradientUnits="userSpaceOnUse">
<stop offset="0.320408" stop-color="#D9499B"/>
<stop offset="1" stop-color="#0DFF80"/>
</linearGradient>
<linearGradient id="paint19_linear_1123_5153" x1="28.6864" y1="51.0047" x2="30.0693" y2="51.0519" gradientUnits="userSpaceOnUse">
<stop offset="0.320408" stop-color="#D9499B"/>
<stop offset="1" stop-color="#0DFF80"/>
</linearGradient>
<linearGradient id="paint20_linear_1123_5153" x1="38.0924" y1="48.3371" x2="41.6034" y2="48.7084" gradientUnits="userSpaceOnUse">
<stop offset="0.320408" stop-color="#D9499B"/>
<stop offset="1" stop-color="#0DFF80"/>
</linearGradient>
</defs>
</svg>
