<svg width="22" height="22" viewBox="0 0 22 22" fill="none" xmlns="http://www.w3.org/2000/svg">
<g clip-path="url(#clip0_1235_2397)">
<path d="M20.7334 9.57065L15.8095 7.64945L13.9163 1.95245C13.8269 1.68338 13.5745 1.50195 13.2923 1.50195C13.0101 1.50195 12.7576 1.68338 12.6682 1.95158L10.7751 7.64857L5.84937 9.56977C5.59782 9.66794 5.4313 9.91159 5.4313 10.1833C5.4313 10.455 5.59782 10.696 5.85025 10.7951L10.776 12.7163L12.6691 18.4133C12.7585 18.6815 13.0109 18.8629 13.2931 18.8629C13.5754 18.8629 13.8278 18.6815 13.9172 18.4133L15.8103 12.7163L20.7361 10.7951C20.9876 10.6969 21.1541 10.4532 21.1541 10.1815C21.1541 9.90984 20.9876 9.66881 20.7352 9.57065H20.7334ZM15.0452 11.604C14.8629 11.6742 14.7209 11.8232 14.6596 12.0072L13.2923 16.1222L11.925 12.009C11.8636 11.8249 11.7234 11.6759 11.5411 11.604L7.89941 10.1842L11.5402 8.76255C11.7225 8.69244 11.8645 8.54344 11.9259 8.35763L13.2931 4.2444L14.6604 8.35851C14.7218 8.54432 14.862 8.69331 15.0443 8.76431L18.686 10.1842L15.0443 11.6058L15.0452 11.604ZM6.61452 3.70362H4.96677V2.1593C4.96677 1.79644 4.67141 1.50195 4.30943 1.50195C3.94745 1.50195 3.65208 1.79644 3.65208 2.1593V3.70362H2.08935C1.7265 3.70362 1.43201 3.99811 1.43201 4.36097C1.43201 4.72382 1.7265 5.01831 2.08935 5.01831H3.65121V6.56264C3.65121 6.92549 3.9457 7.21998 4.30855 7.21998C4.67141 7.21998 4.9659 6.92549 4.9659 6.56264V5.01831H6.61364C6.97737 5.01831 7.27099 4.72382 7.27099 4.36097C7.27099 3.99811 6.97737 3.70362 6.61364 3.70362H6.61452ZM8.83635 17.3957H7.87224V16.5052C7.87224 16.1424 7.57863 15.8479 7.21489 15.8479C6.85116 15.8479 6.55755 16.1424 6.55755 16.5052V17.3957H5.65655C5.29369 17.3957 4.9992 17.6902 4.9992 18.053C4.9992 18.4159 5.29369 18.7104 5.65655 18.7104H6.5593V19.6009C6.5593 19.9637 6.85292 20.2582 7.21665 20.2582C7.58038 20.2582 7.87399 19.9637 7.87399 19.6009V18.7104H8.83635C9.1992 18.7104 9.49369 18.4159 9.49369 18.053C9.49369 17.6902 9.1992 17.3957 8.83635 17.3957Z" fill="#D9D9D9"/>
</g>
<defs>
<clipPath id="clip0_1235_2397">
<rect width="21.0351" height="21.0351" fill="white" transform="translate(0.774658 0.362305)"/>
</clipPath>
</defs>
</svg>
