<svg width="14" height="12" viewBox="0 0 14 12" fill="none" xmlns="http://www.w3.org/2000/svg">
<path fill-rule="evenodd" clip-rule="evenodd" d="M9.75839 0.517735C11.8627 0.326435 13.677 1.98331 13.677 4.09629V4.14808C13.677 5.11363 13.2935 6.03963 12.6107 6.72238L7.92726 11.4058C7.5566 11.7765 6.95565 11.7765 6.58499 11.4058L1.90152 6.72238C1.21877 6.03963 0.835205 5.11363 0.835205 4.14808V4.0963C0.835205 1.98331 2.64954 0.326436 4.75385 0.517736C5.74094 0.607472 6.64593 1.10077 7.25612 1.87894C7.86631 1.10077 8.77129 0.607471 9.75839 0.517735ZM12.4343 4.09629C12.4343 2.71409 11.2474 1.63025 9.8709 1.75539C9.20838 1.81561 8.60242 2.15375 8.20327 2.68595L7.81433 3.20453C7.53523 3.57667 6.97703 3.57667 6.69793 3.20454L6.30897 2.68594C5.90981 2.15375 5.30385 1.81561 4.64134 1.75539C3.26481 1.63025 2.07796 2.71409 2.07796 4.0963V4.14808C2.07796 4.78403 2.33059 5.39393 2.78028 5.84362L7.25613 10.3194L11.732 5.84362C12.1816 5.39393 12.4343 4.78403 12.4343 4.14808V4.09629Z" fill="#86878B"/>
</svg>
