<svg width="24" height="25" viewBox="0 0 24 25" fill="none" xmlns="http://www.w3.org/2000/svg">
<path d="M15.0496 12.4558C14.8423 14.8052 13.2015 16.1411 11.339 16.1411C9.47655 16.1411 8.23691 14.491 8.41611 12.4558C8.5953 10.4206 10.1261 8.77051 11.9885 8.77051C13.851 8.77051 15.2284 10.4289 15.0496 12.4558V12.4558Z" stroke="#C8C8C8" stroke-width="1.47412" stroke-linecap="round" stroke-linejoin="round"/>
<path d="M15.0392 19.895C13.7236 20.4478 12.8612 20.563 11.3871 20.563C6.90948 20.563 3.60192 16.9329 3.99394 12.4553C4.38597 7.97767 8.33845 4.34766 12.8161 4.34766C17.8599 4.34766 20.6326 7.65199 20.2429 12.0743C19.9522 15.3759 17.8424 16.3272 16.7377 16.1314C15.6984 15.9471 14.8407 15.0065 14.9992 13.2062L15.3898 8.77232" stroke="#C8C8C8" stroke-width="1.47412" stroke-linecap="round" stroke-linejoin="round"/>
</svg>
